<svg width="29" height="28" viewBox="0 0 29 28" fill="none" xmlns="http://www.w3.org/2000/svg">
<g clip-path="url(#clip0_1535_3419)">
<path d="M19.0218 21.9376C19.4649 21.9487 19.8748 21.8933 20.2847 21.7603C21.8358 21.2729 23.3868 20.7854 24.9489 20.309C25.3478 20.1872 25.7466 20.0764 26.1676 20.0874C27.5968 20.1096 28.5938 21.2396 28.6603 22.558C28.6714 22.835 28.5385 23.0566 28.2947 23.1895C28.1285 23.2781 27.9624 23.3557 27.7851 23.4222C25.0154 24.386 22.2346 25.3388 19.4649 26.3026C18.8888 26.5021 18.3016 26.6904 17.7366 26.9009C16.2964 27.4438 14.8451 27.4438 13.3827 27.0006C11.1558 26.3359 8.92898 25.6601 6.70214 24.9954C6.61351 24.9732 6.5138 24.94 6.39193 24.9178C6.3587 25.0507 6.33654 25.1615 6.3033 25.2834C6.20359 25.6822 5.9377 25.9149 5.52779 25.926C4.4753 25.9481 3.42282 25.9481 2.37033 25.9592C2.08228 25.9592 1.78315 25.9703 1.49511 25.9592C1.30677 25.9481 1.12951 25.926 0.952244 25.8817C0.741747 25.8263 0.608802 25.6601 0.575565 25.4496C0.553408 25.2834 0.53125 25.1172 0.53125 24.951C0.53125 22.1481 0.53125 19.3562 0.53125 16.5533C0.53125 16.3871 0.553408 16.2209 0.575565 16.0548C0.61988 15.811 0.752826 15.6448 0.99656 15.5895C1.12951 15.5562 1.27353 15.5341 1.41755 15.5341C2.8024 15.5341 4.18725 15.5341 5.56102 15.5341C5.66073 15.5341 5.76044 15.5451 5.84907 15.5562C6.19252 15.6338 6.39193 15.8443 6.42517 16.1988C6.44733 16.4204 6.45841 16.6419 6.46949 16.8857C6.5692 16.8967 6.65783 16.9078 6.74646 16.9189C7.49981 16.9965 8.24209 17.074 8.99545 17.1516C9.71557 17.2291 10.3914 17.4618 11.045 17.7609C11.5103 17.9714 11.9867 18.1819 12.452 18.3924C13.006 18.6472 13.571 18.758 14.1803 18.7358C14.8007 18.7248 15.4212 18.7137 16.0305 18.8134C17.4597 19.0571 18.3792 19.8991 18.8334 21.2618C18.8888 21.4723 18.9442 21.7049 19.0218 21.9376ZM26.9763 22.1592C26.788 21.7825 26.511 21.5942 26.1233 21.6163C25.9017 21.6274 25.6801 21.6717 25.4696 21.7382C23.9961 22.1924 22.5116 22.6577 21.0381 23.1341C20.2183 23.4 19.3874 23.5219 18.5232 23.4332C18.0247 23.3778 17.515 23.3446 17.0165 23.3003C15.7092 23.2006 14.4019 23.1009 13.0946 23.0012C12.8841 22.9901 12.6625 22.979 12.4853 22.8571C12.2083 22.6799 11.9867 22.4472 11.7541 22.2035C11.9646 22.0373 12.164 21.8933 12.3523 21.7382C12.6404 21.5166 12.9506 21.3947 13.3162 21.5055C13.3605 21.5166 13.4048 21.5166 13.4491 21.5166C14.6456 21.6052 15.8532 21.7049 17.0497 21.7936C17.1273 21.8047 17.1938 21.7936 17.2824 21.7936C17.1494 21.0513 16.4847 20.3977 15.7757 20.3423C15.0556 20.2869 14.3244 20.2869 13.6042 20.2758C12.9284 20.2647 12.308 20.1096 11.743 19.744C11.178 19.3784 10.5576 19.1014 9.91499 18.902C8.84035 18.5586 7.73247 18.481 6.60243 18.5364C6.53596 18.5364 6.46949 18.5475 6.39193 18.5586C6.38086 18.6472 6.38086 18.7137 6.38086 18.7912C6.36978 20.1872 6.36978 21.5942 6.3587 22.9901C6.3587 23.3225 6.39193 23.3668 6.70214 23.4665C6.73538 23.4776 6.76861 23.4886 6.80185 23.4886C9.16163 24.1977 11.5325 24.8956 13.8923 25.6158C14.9891 25.9481 16.0637 25.9481 17.1494 25.5714C20.0742 24.5522 22.9991 23.533 25.9239 22.5248C26.2673 22.414 26.5997 22.2921 26.9763 22.1592ZM2.08228 17.1848C2.0712 17.4175 2.04905 17.6058 2.04905 17.8052C2.04905 19.7108 2.06012 21.6052 2.0712 23.5108C2.0712 23.8099 2.09336 24.109 2.10444 24.3971C2.44788 24.4746 4.49746 24.4636 4.80767 24.3749C4.80767 21.9819 4.80767 19.5889 4.80767 17.1848C3.88813 17.1848 3.00182 17.1848 2.08228 17.1848Z" fill="#E983CC"/>
<path d="M18.3993 9.99467C18.4215 10.0833 18.4436 10.1609 18.4658 10.2495C18.8425 11.5014 19.2302 12.7533 19.6069 14.0052C19.6623 14.1825 19.6955 14.3708 19.7066 14.5481C19.7398 14.9026 19.618 15.1906 19.3078 15.39C19.0086 15.5895 18.6873 15.5895 18.3771 15.4344C18.2553 15.379 18.1334 15.2903 18.0226 15.2017C17.0145 14.4594 16.0063 13.7282 14.9981 12.9859C14.9649 12.9638 14.9427 12.9416 14.9095 12.9195C14.5771 12.6868 14.6325 12.6647 14.278 12.9306C13.8459 13.2408 13.4249 13.562 12.9928 13.8833C12.3724 14.3376 11.752 14.7918 11.1205 15.246C10.9211 15.39 10.7106 15.523 10.4447 15.5341C9.86863 15.5562 9.4144 15.102 9.49195 14.5259C9.51411 14.3376 9.55842 14.1381 9.62489 13.9609C10.0016 12.7755 10.4004 11.59 10.7771 10.4046C10.7882 10.3824 10.7882 10.3492 10.7992 10.327C10.899 10.0058 10.899 9.98359 10.6109 9.7731C9.61382 9.05298 8.61672 8.32178 7.63071 7.60165C7.46453 7.47979 7.28727 7.34684 7.14324 7.19174C6.86627 6.90369 6.82196 6.57133 6.9549 6.20573C7.08785 5.84012 7.35374 5.65179 7.73042 5.61855C7.91876 5.60747 8.09602 5.58531 8.28436 5.58531C9.07095 5.58531 9.85755 5.58531 10.6552 5.58531C11.0319 5.58531 11.3975 5.60747 11.7742 5.61855C11.8296 5.61855 11.885 5.61855 11.9293 5.61855C12.2616 5.60747 12.3392 5.56315 12.45 5.24187C12.7491 4.31125 13.0482 3.36955 13.3584 2.43893C13.4582 2.11765 13.5579 1.79636 13.6797 1.48616C13.7351 1.33105 13.8127 1.17595 13.8902 1.03193C14.1007 0.688483 14.4331 0.577695 14.8098 0.72172C15.2308 0.876823 15.4967 1.17595 15.6407 1.59694C15.962 2.53864 16.2833 3.49142 16.5935 4.43312C16.6932 4.73224 16.7818 5.04245 16.8815 5.34158C16.9701 5.61855 16.9812 5.62963 17.2803 5.62963C18.4547 5.62963 19.6401 5.61855 20.8145 5.61855C21.0582 5.61855 21.2909 5.60747 21.5346 5.64071C22.0331 5.6961 22.3544 5.99523 22.4098 6.44946C22.4431 6.74859 22.3766 7.01448 22.1329 7.2139C21.8337 7.45763 21.5346 7.67921 21.2244 7.91186C20.3492 8.55443 19.485 9.18592 18.6098 9.82849C18.5544 9.87281 18.4879 9.9282 18.3993 9.99467ZM11.5969 12.997C11.608 13.0081 11.6302 13.0192 11.6412 13.0303C11.7077 12.9859 11.7742 12.9306 11.8517 12.8862C12.5386 12.3877 13.2366 11.8891 13.9124 11.3795C14.5328 10.9142 14.8762 10.9585 15.4413 11.3795C16.1281 11.8891 16.8261 12.3988 17.5241 12.8973C17.5905 12.9527 17.6681 12.997 17.7789 13.0746C17.7457 12.9527 17.7346 12.8973 17.7124 12.8308C17.5905 12.4431 17.4687 12.0553 17.3468 11.6676C17.1806 11.1469 17.0366 10.6151 16.8593 10.0944C16.7153 9.65123 16.8261 9.29671 17.1917 9.00866C17.2803 8.94219 17.369 8.86464 17.4576 8.79816C18.1113 8.3107 18.7649 7.83431 19.4186 7.34684C19.4961 7.29145 19.5737 7.22497 19.6512 7.1585C19.6401 7.13634 19.6401 7.12527 19.629 7.10311C19.5293 7.10311 19.4407 7.10311 19.341 7.10311C18.499 7.10311 17.657 7.10311 16.815 7.10311C16.6821 7.10311 16.5491 7.09203 16.4162 7.08095C16.0949 7.03663 15.8512 6.87045 15.6961 6.59348C15.6296 6.47162 15.5742 6.33867 15.5299 6.20573C15.3305 5.59639 15.1421 4.97598 14.9427 4.35557C14.8541 4.0786 14.7544 3.79055 14.6547 3.46926C14.6104 3.55789 14.5882 3.61329 14.5771 3.6576C14.4442 4.0786 14.3001 4.49959 14.1672 4.92058C13.9899 5.45237 13.8127 5.97307 13.6354 6.50485C13.5025 6.88153 13.2255 7.06987 12.8267 7.08095C12.5497 7.09203 12.2727 7.10311 12.0068 7.10311C11.3089 7.10311 10.6109 7.10311 9.90186 7.10311C9.82431 7.10311 9.7246 7.06987 9.64705 7.16958C9.85755 7.32468 10.057 7.46871 10.2564 7.61273C10.8879 8.07804 11.5304 8.54335 12.1619 9.01974C12.4832 9.26347 12.6051 9.58476 12.5275 9.98359C12.5054 10.1165 12.4721 10.2384 12.4278 10.3714C12.1841 11.1358 11.9404 11.9002 11.6966 12.6757C11.6634 12.7644 11.6302 12.8862 11.5969 12.997Z" fill="#E983CC"/>
<path d="M4.04485 9.4076C4.16672 9.03092 4.26643 8.68748 4.37722 8.34404C4.46585 8.05599 4.55448 7.76794 4.64311 7.47989C4.6985 7.32479 4.7539 7.18076 4.83145 7.04782C5.04195 6.68222 5.45186 6.58251 5.81746 6.79301C6.11659 6.95919 6.31601 7.22508 6.4268 7.53529C6.61513 8.05599 6.7924 8.56561 6.96966 9.08632C7.05829 9.36329 7.09152 9.39653 7.37957 9.39653C7.90028 9.39653 8.42098 9.38545 8.94168 9.38545C9.09679 9.38545 9.24081 9.38545 9.39591 9.4076C10.0274 9.49623 10.3487 10.2717 9.93877 10.7703C9.79475 10.9586 9.61749 11.1248 9.42915 11.2688C9.07463 11.5347 8.70903 11.7785 8.34343 12.0333C8.31019 12.0554 8.28803 12.0776 8.2548 12.0887C8.0443 12.2549 8.01106 12.3435 8.11077 12.5872C8.22156 12.8753 8.34343 13.1633 8.44314 13.4514C8.53177 13.7062 8.58716 13.961 8.65363 14.2158C8.70903 14.4485 8.68687 14.67 8.6204 14.9027C8.54285 15.1686 8.36558 15.3458 8.07754 15.3902C7.74517 15.4455 7.44604 15.368 7.16908 15.1797C6.71484 14.8584 6.26061 14.5371 5.80638 14.2158C5.58481 14.0496 5.57373 14.0496 5.34107 14.2158C4.94224 14.5039 4.53232 14.7919 4.13348 15.0799C3.90083 15.2461 3.63494 15.3458 3.35797 15.4012C2.89266 15.4788 2.57137 15.2572 2.5049 14.7919C2.46059 14.4817 2.5049 14.1715 2.60461 13.8724C2.73756 13.4292 2.88158 12.9971 3.01453 12.554C3.09208 12.3102 3.06992 12.2549 2.8705 12.0998C2.53814 11.856 2.19469 11.6123 1.86233 11.3575C1.67399 11.2024 1.49673 11.0251 1.31947 10.8478C1.16437 10.6817 1.08682 10.4712 1.05358 10.2274C1.00926 9.87291 1.18652 9.56271 1.52997 9.47408C1.72939 9.41868 1.9288 9.4076 2.12822 9.4076C2.67108 9.39652 3.21394 9.4076 3.74573 9.4076C3.84544 9.4076 3.93407 9.4076 4.04485 9.4076ZM6.55974 12.831C6.54866 12.7866 6.53758 12.7312 6.51543 12.6869C6.26061 11.9225 6.34924 11.6455 6.96966 11.147C6.98074 11.1359 7.00289 11.1248 7.01397 11.1137C7.05829 11.0694 7.1026 11.0251 7.19123 10.9365C6.96966 10.9365 6.80347 10.9365 6.63729 10.9365C6.28277 10.9254 6.0058 10.7703 5.82854 10.4601C5.76207 10.3382 5.71775 10.1942 5.67344 10.0723C5.6402 9.9837 5.60696 9.89507 5.56265 9.75105C5.41862 10.1388 5.34107 10.5044 5.04195 10.7371C4.73174 10.9808 4.35506 10.9586 3.97838 10.9808C4.10025 11.1027 4.23319 11.2134 4.36614 11.3021C4.70958 11.5569 4.80929 11.8782 4.68742 12.2881C4.64311 12.421 4.60987 12.554 4.56556 12.698C4.55448 12.7534 4.5434 12.8088 4.53232 12.9196C4.86469 12.6869 5.15273 12.421 5.55157 12.421C5.93933 12.3878 6.2163 12.6426 6.55974 12.831Z" fill="#E983CC"/>
<path d="M21.3522 12.2769C21.2636 12.2104 21.186 12.144 21.0974 12.0886C20.6653 11.7784 20.2332 11.4792 19.8012 11.158C19.6682 11.0582 19.5353 10.9585 19.4134 10.8367C19.1032 10.5154 19.1143 10.1165 19.4356 9.79526C19.7014 9.54045 20.0227 9.41858 20.3994 9.4075C20.9533 9.4075 21.5184 9.39643 22.0723 9.39643C22.1277 9.39643 22.172 9.39643 22.2606 9.38535C22.2939 9.29672 22.3271 9.20809 22.3493 9.11946C22.5265 8.56552 22.7149 8.01158 22.8921 7.45764C22.9808 7.20282 23.1359 6.99233 23.3685 6.83722C23.6123 6.67104 23.8671 6.65996 24.1108 6.82614C24.3656 6.99233 24.554 7.20282 24.6426 7.50195C24.8198 8.03373 25.0082 8.57659 25.1854 9.10838C25.2852 9.39643 25.2962 9.39643 25.5954 9.39643C26.1936 9.39643 26.803 9.39643 27.4012 9.41858C27.5452 9.41858 27.7003 9.47398 27.8333 9.54045C28.1767 9.69555 28.3318 10.0168 28.2764 10.3935C28.2321 10.6926 28.0881 10.9364 27.8333 11.1247C27.4012 11.446 26.9581 11.7673 26.526 12.0775C26.249 12.2769 26.2047 12.2104 26.3376 12.5982C26.4927 13.0303 26.6257 13.4734 26.7697 13.9055C26.8583 14.1825 26.8805 14.4594 26.8583 14.7475C26.8251 15.2128 26.4706 15.4787 26.0164 15.4011C25.7283 15.3568 25.4735 15.246 25.2408 15.0799C24.8531 14.814 24.4764 14.537 24.0886 14.2711C23.8117 14.0828 23.7895 14.0828 23.5015 14.2822C23.0916 14.5702 22.6927 14.8472 22.2828 15.1352C22.0723 15.2793 21.8286 15.379 21.5738 15.4011C21.1306 15.4565 20.8647 15.2682 20.7429 14.8361C20.6653 14.5591 20.6875 14.2933 20.7761 14.0274C20.9423 13.5177 21.1195 13.0081 21.2857 12.4874C21.3079 12.4209 21.33 12.3545 21.3522 12.2769ZM23.7674 9.71771C23.7009 9.91713 23.6566 10.0501 23.6123 10.183C23.4239 10.7259 23.1359 10.9253 22.5598 10.9253C22.4158 10.9253 22.2717 10.9253 22.1277 10.9253C22.1277 10.9475 22.1166 10.9585 22.1166 10.9807C22.3936 11.2133 22.737 11.3795 22.8589 11.7673C22.9808 12.144 22.8035 12.4874 22.7038 12.9084C23.0583 12.6425 23.3574 12.3988 23.7674 12.3988C24.1662 12.3988 24.4542 12.6536 24.7755 12.853C24.7645 12.7311 24.7201 12.6314 24.7091 12.5317C24.6758 12.3434 24.6315 12.144 24.6426 11.9556C24.6647 11.6343 24.8531 11.4017 25.1079 11.2133C25.2187 11.1247 25.3406 11.0361 25.4513 10.9475C25.0525 10.9475 24.6869 10.9696 24.3545 10.748C23.9889 10.5154 23.9114 10.1276 23.7674 9.71771Z" fill="#E983CC"/>
</g>
<defs>
<clipPath id="clip0_1535_3419">
<rect width="28.1512" height="26.6667" fill="white" transform="translate(0.5 0.66626)"/>
</clipPath>
</defs>
</svg>
