<svg width="19" height="28" viewBox="0 0 19 28" fill="none" xmlns="http://www.w3.org/2000/svg">
<g clip-path="url(#clip0_1535_3412)">
<path d="M8.70435 27.4996C8.50102 27.4488 8.29769 27.3878 8.09436 27.3573C4.89192 26.8998 2.02497 24.5209 0.987991 21.4607C0.774495 20.8203 0.632164 20.1594 0.571165 19.4885C0.540666 19.1936 0.621998 18.9496 0.825327 18.7361C0.947325 18.6141 1.04899 18.482 1.17099 18.3396C1.35398 18.5125 1.54715 18.665 1.68948 18.8378C1.78098 18.9598 1.84197 19.1225 1.87247 19.275C1.99447 19.8138 2.08597 20.3628 2.2283 20.8914C2.52313 21.9386 3.12295 22.8129 3.84477 23.616C4.89192 24.7954 6.18306 25.5883 7.72836 25.9442C8.66368 26.1678 9.599 26.1577 10.5343 25.9747C11.5713 25.7815 12.5574 25.4562 13.4724 24.9072C14.9872 23.9922 15.9734 22.6706 16.5122 20.9931C16.8477 19.9358 16.9595 18.848 16.8782 17.75C16.8579 17.4958 16.8782 17.2315 16.8782 16.9468C15.9734 16.896 15.0991 16.9163 14.2146 16.9265C14.2044 17.0282 14.2044 17.0993 14.2044 17.1705C14.1942 17.6687 14.1942 18.1566 14.1841 18.6548C14.1536 20.8101 12.7099 22.6299 10.6055 23.1891C7.73853 23.9515 5.21725 21.9894 4.71909 19.458C4.62759 18.97 4.60726 18.4718 4.62759 17.9736C4.64792 17.6382 4.62759 17.2925 4.62759 16.957C4.43443 16.9062 2.5333 16.8858 1.94364 16.9265C1.87247 17.1502 1.83181 17.4043 1.71998 17.6077C1.60815 17.811 1.42515 17.9736 1.26249 18.1668C1.00832 17.9635 0.784661 17.75 0.601665 17.506C0.540666 17.4145 0.5 17.2823 0.5 17.1603C0.5 15.6354 0.5 14.1104 0.520333 12.5752C0.520333 12.3821 0.560999 12.1889 0.611831 12.0059C0.754162 11.5281 1.09982 11.2739 1.58781 11.2129C1.80131 11.1824 2.02497 11.1621 2.24863 11.1621C3.05179 11.1621 3.85494 11.1723 4.65809 11.1926C4.83092 11.1926 5.00375 11.2231 5.15625 11.2739C5.58324 11.4163 5.84757 11.7213 5.91873 12.1686C5.94923 12.3719 5.96956 12.5854 5.96956 12.7989C5.96956 14.6492 5.96956 16.4995 5.96956 18.36C5.96956 19.4071 6.34572 20.3119 7.07771 21.0541C7.57587 21.5522 8.19602 21.8166 8.88734 21.9386C10.6868 22.2537 12.6489 20.9931 12.8218 18.6955C12.8319 18.5226 12.8421 18.3498 12.8421 18.1871C12.8421 17.1298 12.8421 16.0725 12.8421 15.0152C12.8421 14.2222 12.8421 13.4191 12.8523 12.6261C12.8523 12.4736 12.8726 12.3211 12.8929 12.1686C12.9946 11.6196 13.3606 11.2739 13.9096 11.2129C14.1637 11.1824 14.4281 11.1723 14.6924 11.1621C15.3634 11.1621 16.0445 11.1621 16.7155 11.1723C17.5187 11.1824 18.1083 11.6094 18.332 12.3313C18.454 12.7277 18.4235 13.1141 18.2507 13.4902C18.1083 13.8054 17.8237 13.9579 17.5288 13.9071C17.1934 13.8461 16.9799 13.6021 16.9494 13.2462C16.929 13.0836 16.9189 12.9209 16.8985 12.7582C16.8782 12.5448 16.8579 12.5244 16.6444 12.5244C16.0649 12.5143 15.4854 12.5143 14.9161 12.5143C14.7737 12.5143 14.6416 12.5143 14.4992 12.5244C14.2451 12.5448 14.1942 12.6057 14.1942 12.8599C14.1942 13.6529 14.1942 14.4357 14.1942 15.2287C14.1942 15.2897 14.2044 15.3609 14.2044 15.432C15.0991 15.432 15.9937 15.432 16.9087 15.432C16.8884 14.8932 17.3052 14.6085 17.5797 14.1816C17.8033 14.4357 18.0168 14.6492 18.1897 14.883C18.2608 14.9745 18.271 15.1169 18.271 15.2287C18.2913 16.7232 18.3422 18.2176 18.1998 19.7121C18.0677 21.0439 17.6 22.2639 16.8477 23.3822C15.9734 24.6835 14.8754 25.7307 13.4724 26.4423C12.4863 26.9506 11.4493 27.2861 10.3411 27.398C10.2395 27.4081 10.148 27.459 10.0463 27.4895C9.60916 27.4996 9.16184 27.4996 8.70435 27.4996ZM4.60726 15.4727C4.60726 15.371 4.60726 15.2897 4.60726 15.1982C4.60726 14.639 4.60726 14.0799 4.60726 13.5207C4.60726 13.2869 4.60726 13.0531 4.60726 12.8192C4.60726 12.6261 4.55642 12.5752 4.37343 12.5448C4.33276 12.5346 4.2921 12.5346 4.25143 12.5346C3.51944 12.5346 2.78746 12.5244 2.05547 12.5244C2.00464 12.5244 1.94364 12.5346 1.88264 12.5448C1.88264 13.5309 1.88264 14.4967 1.88264 15.4727C2.79762 15.4727 3.69227 15.4727 4.60726 15.4727Z" fill="#E983CC"/>
<path d="M14.5125 0.833042C14.5938 0.853375 14.665 0.873708 14.7463 0.883875C15.5901 1.03637 16.434 1.68703 16.5966 2.69351C16.6475 3.01883 16.6271 3.34416 16.5458 3.65932C16.5051 3.84232 16.4645 4.02532 16.4136 4.20831C16.4543 4.22865 16.495 4.24898 16.5255 4.25914C17.5421 4.6658 18.0606 5.41812 18.0911 6.50594C18.1013 6.92276 18.1013 7.34975 18.0911 7.76658C18.0809 8.2749 17.8674 8.50873 17.3591 8.55956C17.1863 8.5799 17.0134 8.56973 16.8508 8.56973C16.0985 8.56973 15.336 8.55956 14.5837 8.55956C14.1262 8.55956 13.6788 8.55956 13.201 8.55956C13.1604 8.69173 13.1299 8.80356 13.0994 8.92556C12.9774 9.37288 12.7944 9.54571 12.3369 9.56604C11.676 9.58638 11.0254 9.58638 10.3646 9.58638C10.2629 9.58638 10.1511 9.55588 10.0596 9.52538C9.65292 9.37288 9.55125 8.90522 9.84608 8.59006C10.0392 8.37657 10.2934 8.2749 10.5882 8.2749C10.9136 8.2749 11.2389 8.26474 11.5642 8.25457C11.615 8.25457 11.676 8.25457 11.7574 8.2444C11.7675 8.16307 11.7777 8.08174 11.7777 8.00041C11.7777 7.42092 11.7574 6.83126 11.7675 6.25177C11.7675 5.95695 11.5337 5.62145 11.1881 5.56045C10.9441 5.51979 10.6899 5.50962 10.4357 5.50962C9.64275 5.50962 8.85993 5.50962 8.06695 5.51979C7.86362 5.51979 7.66029 5.55029 7.47729 5.64179C7.25363 5.76378 7.1113 5.93661 7.09097 6.20094C7.07063 6.49577 7.07063 6.78043 7.06047 7.07526C7.06047 7.45142 7.06047 7.83774 7.06047 8.23424C7.13163 8.2444 7.19263 8.25457 7.25363 8.25457C7.59929 8.25457 7.93478 8.25457 8.28044 8.25457C8.41261 8.25457 8.54477 8.26474 8.66677 8.2749C9.0226 8.32573 9.20559 8.53923 9.21576 8.90522C9.21576 9.27122 9.04293 9.51521 8.69727 9.55588C8.41261 9.59655 8.11778 9.58638 7.82295 9.58638C7.39596 9.58638 6.97914 9.57621 6.55214 9.57621C6.45048 9.57621 6.33865 9.56605 6.23698 9.55588C5.89132 9.51521 5.73882 9.35255 5.69816 9.00689C5.67783 8.87473 5.66766 8.73239 5.64733 8.56973C5.54566 8.56973 5.46433 8.56973 5.37283 8.56973C4.14269 8.56973 2.91254 8.56973 1.69257 8.56973C1.5604 8.56973 1.42824 8.55956 1.30624 8.53923C1.00125 8.4884 0.787751 8.28507 0.747085 7.96991C0.706419 7.74625 0.706419 7.51242 0.716586 7.26842C0.726752 6.8516 0.736918 6.4246 0.787751 6.00778C0.879249 5.25546 1.32657 4.73697 1.99756 4.41164C2.11956 4.35064 2.24156 4.29981 2.38389 4.22865C2.34322 4.11681 2.31272 4.01515 2.28222 3.92365C1.87556 2.62234 2.63805 1.24987 3.95969 0.914374C4.07152 0.883875 4.19352 0.863542 4.30535 0.833042C4.41718 0.833042 4.52901 0.833042 4.65101 0.833042C4.69168 0.843209 4.74251 0.873708 4.78318 0.873708C5.97265 1.00587 6.87747 2.10385 6.75547 3.29333C6.72497 3.60849 6.64364 3.91348 6.57248 4.23881C6.8063 4.38114 7.06047 4.35064 7.31463 4.22865C7.27396 4.07615 7.2333 3.93382 7.2028 3.79149C7.09097 3.32383 7.06047 2.86634 7.21296 2.39868C7.49763 1.5447 8.12795 1.06687 8.98193 0.904208C9.82575 0.741544 10.5679 0.975373 11.1474 1.62603C11.7574 2.31735 11.8489 3.11033 11.5642 3.97448C11.5337 4.05582 11.5134 4.13715 11.4829 4.21848C11.7472 4.38114 11.9912 4.35064 12.2352 4.21848C12.225 4.16765 12.225 4.13715 12.2149 4.10665C12.1539 3.88299 12.0725 3.66949 12.0319 3.44583C11.8692 2.31735 12.7944 1.1177 13.8923 0.873708C13.9838 0.853375 14.0753 0.833042 14.177 0.822876C14.2888 0.833042 14.4007 0.833042 14.5125 0.833042ZM5.82016 5.50962C5.56599 5.50962 5.322 5.50962 5.078 5.50962C4.52901 5.49945 3.99019 5.48929 3.4412 5.48929C3.16671 5.48929 2.89221 5.50962 2.62788 5.61129C2.42455 5.69262 2.25172 5.81462 2.18056 6.02811C2.05856 6.3941 2.07889 6.77026 2.06873 7.15659C3.2582 7.15659 4.41718 7.15659 5.59649 7.15659C5.67783 6.61777 5.74899 6.07894 5.82016 5.50962ZM12.9977 5.54012C13.0689 6.09928 13.14 6.62793 13.2112 7.16676C14.3905 7.16676 15.5495 7.16676 16.7186 7.16676C16.7695 6.8516 16.7593 6.55677 16.7085 6.25177C16.6271 5.82478 16.3933 5.60112 15.9561 5.55029C15.8646 5.54012 15.763 5.54012 15.6613 5.54012C14.9192 5.54012 14.1668 5.54012 13.4247 5.54012C13.2925 5.54012 13.1705 5.54012 12.9977 5.54012ZM15.3055 3.17133C15.3055 2.66301 14.8378 2.21568 14.3295 2.22585C13.811 2.23602 13.384 2.67317 13.384 3.1815C13.384 3.69999 13.8313 4.13715 14.36 4.12698C14.8683 4.11681 15.3055 3.67966 15.3055 3.17133ZM5.444 3.20183C5.444 2.68334 5.00684 2.23602 4.48835 2.22585C3.98002 2.22585 3.52253 2.66301 3.51237 3.16117C3.5022 3.66949 3.94952 4.11681 4.47818 4.12698C4.97634 4.12698 5.444 3.68982 5.444 3.20183ZM10.3442 3.1815C10.3442 2.62234 9.94775 2.22585 9.39876 2.22585C8.88027 2.22585 8.46344 2.65284 8.46344 3.1815C8.46344 3.71016 8.8701 4.11681 9.40892 4.11681C9.94775 4.12698 10.3341 3.73049 10.3442 3.1815Z" fill="#E983CC"/>
<path d="M9.3999 15.1169C9.19657 14.8627 8.98308 14.6391 8.83058 14.3951C8.74925 14.2629 8.72892 14.0698 8.71875 13.9071C8.71875 12.8701 8.71875 11.8331 8.72892 10.7962C8.72892 10.3793 8.99324 10.0337 9.3389 9.95234C9.63373 9.88117 9.92856 10.0235 10.0201 10.3082C10.0709 10.4505 10.0912 10.6132 10.0912 10.7657C10.0912 11.8636 10.0912 12.9515 10.0709 14.0494C10.0709 14.1918 10.0302 14.3443 9.94889 14.4561C9.7964 14.6696 9.60323 14.8729 9.3999 15.1169Z" fill="#E983CC"/>
<path d="M7.71861 11.3147C7.89144 11.4672 8.05411 11.6095 8.21677 11.7417C8.3591 11.8637 8.43027 12.0264 8.43027 12.2093C8.43027 12.86 8.43027 13.5107 8.43027 14.1511C8.43027 14.3443 8.34893 14.507 8.19644 14.6391C8.06427 14.751 7.92194 14.873 7.76945 15.0051C7.58645 14.8526 7.39329 14.7103 7.24079 14.5375C7.15946 14.446 7.09846 14.2935 7.09846 14.1613C7.07813 13.5513 7.07812 12.9413 7.07812 12.3415C7.07812 12.067 7.20012 11.823 7.41362 11.6299C7.51528 11.5485 7.60678 11.4367 7.71861 11.3147Z" fill="#E983CC"/>
<path d="M11.0637 11.3351C11.2365 11.4876 11.389 11.6197 11.5314 11.7621C11.6534 11.8841 11.7144 12.0264 11.7144 12.1992C11.7245 12.8296 11.7245 13.47 11.7245 14.1004C11.7245 14.3139 11.633 14.4969 11.4805 14.6392C11.3484 14.7714 11.1959 14.8933 11.023 15.0458C10.84 14.8832 10.657 14.7307 10.4944 14.5477C10.4131 14.4562 10.3622 14.3139 10.3622 14.1919C10.3521 13.531 10.3724 12.8601 10.3724 12.1992C10.3724 11.9959 10.4537 11.8332 10.6062 11.7112C10.7587 11.5892 10.901 11.4672 11.0637 11.3351Z" fill="#E983CC"/>
</g>
<defs>
<clipPath id="clip0_1535_3412">
<rect width="17.9133" height="26.6667" fill="white" transform="translate(0.5 0.833008)"/>
</clipPath>
</defs>
</svg>
