<svg width="27" height="27" viewBox="0 0 27 27" fill="none" xmlns="http://www.w3.org/2000/svg">
<g clip-path="url(#clip0_1535_3409)">
<path d="M5.35036 26.6663C5.28937 26.6358 5.22837 26.5951 5.1572 26.5748C4.43538 26.3816 3.99822 25.7614 3.93722 25.0396C3.92706 24.8668 3.91689 24.7041 3.90672 24.5313C3.89656 24.2771 3.78473 24.1043 3.57123 23.9823C3.1849 23.7587 2.96124 23.413 2.93074 22.9758C2.91041 22.7725 2.94091 22.559 2.98158 22.3455C3.02224 22.132 2.97141 21.9592 2.81891 21.8169C2.32075 21.3289 2.22926 20.7595 2.45292 20.1191C2.50375 19.9666 2.49358 19.8446 2.40209 19.7022C2.29025 19.5192 2.17842 19.3362 2.09709 19.1431C1.90393 18.7059 1.93443 18.2688 2.20892 17.8723C2.29025 17.7503 2.37159 17.6283 2.47325 17.5266C2.58508 17.4148 2.59525 17.3029 2.56475 17.1504C2.52408 16.9166 2.49358 16.6625 2.50375 16.4286C2.52408 15.9406 2.77825 15.5746 3.19507 15.3205C3.3679 15.2188 3.5509 15.1273 3.73389 15.046C3.85589 14.9952 3.90672 14.924 3.90672 14.7918C3.89656 14.3648 3.89656 13.9277 3.90672 13.5007C3.90672 13.338 3.84573 13.2059 3.72373 13.094C3.01207 12.484 2.67658 11.6809 2.60542 10.7659C2.59525 10.6846 2.58508 10.6134 2.57492 10.5219C2.34109 10.5117 2.12759 10.5016 1.90393 10.4914C1.09061 10.4406 0.470456 9.86108 0.358624 9.05793C0.338291 8.9156 0.328125 8.7631 0.328125 8.62077C0.328125 7.58379 0.328125 6.53664 0.328125 5.49966C0.328125 5.20484 0.368791 4.91001 0.490789 4.64568C0.765283 4.03569 1.27361 3.7307 1.92426 3.65953C2.07676 3.6392 2.22926 3.6392 2.38175 3.6392C2.65625 3.62903 2.85958 3.52737 3.00191 3.28337C3.3374 2.74455 3.83556 2.56155 4.44555 2.65305C4.52688 2.66322 4.60821 2.68355 4.68954 2.69372C4.88271 2.72421 5.04537 2.67338 5.19787 2.53105C5.51303 2.22606 5.88919 2.03289 6.33651 2.06339C6.49918 2.07356 6.67201 2.11423 6.83467 2.16506C7.01767 2.22606 7.16 2.20572 7.31249 2.09389C7.47516 1.98206 7.65815 1.8804 7.84115 1.79907C8.23764 1.6364 8.63414 1.6669 9.0103 1.8804C9.16279 1.9719 9.31529 2.07356 9.44745 2.18539C9.56945 2.28706 9.70162 2.30739 9.85411 2.28706C10.0879 2.25656 10.3218 2.24639 10.5556 2.24639C10.9826 2.24639 11.3384 2.41922 11.5722 2.77505C11.7349 3.02921 11.8671 3.31387 12.0297 3.62903C12.1924 3.62903 12.3957 3.62903 12.5991 3.62903C12.9142 3.62903 13.2294 3.61886 13.5445 3.61886C13.6665 3.61886 13.758 3.58837 13.8394 3.49687C14.4595 2.76488 15.2525 2.39889 16.198 2.33789C16.2692 2.32772 16.3403 2.31756 16.4115 2.30739C16.4217 2.30739 16.442 2.28706 16.4827 2.26672C16.4827 2.09389 16.4827 1.90073 16.4827 1.70757C16.503 0.934915 16.9808 0.304593 17.6925 0.131763C17.9771 0.0707645 18.272 0.080931 18.5668 0.060598C18.7396 0.0504315 18.9124 0.0300986 19.0954 0.00976562C19.6648 0.00976562 20.2341 0.00976562 20.8034 0.00976562C20.8847 0.0300986 20.9762 0.0504315 21.0576 0.060598C21.3727 0.080931 21.6981 0.0707645 22.0031 0.11143C22.6435 0.202929 23.162 0.711252 23.284 1.35174C23.3247 1.58557 23.3552 1.82956 23.3654 2.07356C23.3755 2.37855 23.4975 2.60222 23.7517 2.75471C24.1685 3.00888 24.3617 3.3952 24.3413 3.88319C24.3312 4.06619 24.3312 4.25935 24.2905 4.44235C24.26 4.59485 24.2803 4.69651 24.4023 4.79818C24.7683 5.14384 24.9717 5.57083 24.9412 6.07915C24.931 6.28248 24.87 6.47564 24.809 6.66881C24.7785 6.77047 24.7887 6.8518 24.8497 6.93314C24.9615 7.10597 25.0835 7.28896 25.1648 7.48213C25.3783 7.97012 25.3275 8.42761 25.0327 8.86477C24.992 8.9156 24.9615 8.96643 24.9208 9.01726C24.7378 9.23076 24.6972 9.45442 24.748 9.73908C24.9005 10.4914 24.6158 11.1726 23.8737 11.4979C23.7212 11.569 23.5585 11.63 23.3755 11.7114C23.3755 11.813 23.3755 11.9249 23.3755 12.0367C23.3755 12.4332 23.3857 12.8297 23.3857 13.2262C23.3857 13.3685 23.4162 13.4702 23.528 13.5617C24.2397 14.1717 24.5955 14.9545 24.6667 15.8796C24.6768 15.9711 24.687 16.0728 24.6972 16.1745C24.7988 16.1745 24.87 16.1643 24.9513 16.1745C25.2157 16.205 25.4902 16.1948 25.7443 16.266C26.395 16.4388 26.761 16.9064 26.8931 17.5571C26.9236 17.7198 26.9338 17.8824 26.9338 18.0451C26.9338 19.1126 26.9338 20.1902 26.9338 21.2577C26.9338 21.6542 26.8423 22.0304 26.5983 22.3557C26.2628 22.803 25.7951 22.9962 25.2563 23.0368C25.1547 23.047 25.0632 23.047 24.9615 23.047C24.6463 23.0673 24.382 23.1893 24.199 23.4638C23.9855 23.7892 23.6704 23.9823 23.284 24.0535C23.0197 24.0941 22.7655 24.0738 22.5114 23.9925C22.3792 23.9417 22.2877 23.962 22.186 24.0738C21.6981 24.6025 21.0982 24.7448 20.4171 24.5313C20.2443 24.4805 20.1121 24.4805 19.9596 24.5821C19.7054 24.7448 19.4513 24.8871 19.1463 24.9583C18.8311 25.0295 18.5261 24.9786 18.2516 24.816C18.0991 24.7245 17.9466 24.6228 17.8145 24.511C17.6925 24.4093 17.5806 24.3585 17.418 24.3991C17.235 24.45 17.0316 24.4601 16.8385 24.4703C16.2793 24.4906 15.8625 24.2466 15.588 23.7688C15.4558 23.5452 15.3542 23.3113 15.222 23.0572C15.039 23.0572 14.856 23.0572 14.673 23.0572C14.3477 23.0572 14.0224 23.0572 13.697 23.0572C13.5852 23.0572 13.4937 23.0877 13.4225 23.169C12.7617 23.962 11.8874 24.3076 10.8809 24.3686C10.8606 24.3686 10.8301 24.3788 10.7894 24.389C10.7894 24.4703 10.7894 24.5516 10.7793 24.6431C10.7589 24.8871 10.7488 25.1311 10.6979 25.365C10.5556 25.9749 10.1693 26.3714 9.56945 26.5544C9.46779 26.5849 9.37629 26.6154 9.27462 26.6459C7.98348 26.6663 6.66184 26.6663 5.35036 26.6663ZM10.8199 15.0053C10.8098 15.2493 10.7996 15.4831 10.7793 15.717C10.7386 16.1135 10.5556 16.2965 10.1591 16.3371C10.0981 16.3473 10.0473 16.3473 9.98628 16.3473C8.14614 16.3473 6.30601 16.3473 4.47605 16.3371C4.21172 16.3371 4.02872 16.449 3.89656 16.6625C4.03889 16.8963 4.23205 17.0183 4.50655 17.0183C5.42153 17.0183 6.32635 17.0284 7.24133 17.0183C7.56666 17.0183 7.80049 17.1504 7.98348 17.4046C8.10548 17.5673 8.10548 17.7299 8.00381 17.9028C7.83098 18.1773 7.58699 18.3501 7.24133 18.3399C6.20435 18.3298 5.1572 18.3399 4.12022 18.3399C3.97789 18.3399 3.84573 18.3501 3.71356 18.3704C3.62206 18.3908 3.53057 18.4314 3.44923 18.4823C3.3374 18.5636 3.3374 18.6551 3.4289 18.7466C3.56106 18.8889 3.73389 18.9601 3.92706 18.9601C4.18122 18.9702 4.43538 18.9702 4.67938 18.9804C5.57403 18.9906 6.46868 19.0007 7.36333 19.0007C7.43449 19.0007 7.50566 19.0007 7.58699 19.0211C7.93265 19.0821 8.10548 19.3159 8.09531 19.7124C8.08515 20.0377 7.87165 20.2817 7.54632 20.3224C7.41416 20.3427 7.27183 20.3427 7.1295 20.3427C6.21451 20.3427 5.3097 20.3427 4.39472 20.3427C4.24222 20.3427 4.08972 20.3631 3.93722 20.3936C3.77456 20.4342 3.70339 20.5359 3.71356 20.668C3.72373 20.8104 3.81523 20.9222 3.96772 20.9527C4.07955 20.973 4.19139 20.973 4.30322 20.973C5.23853 20.973 6.17385 20.973 7.10916 20.973C7.28199 20.973 7.46499 20.9934 7.63782 21.034C7.94282 21.1052 8.09531 21.3594 8.08515 21.705C8.07498 21.9999 7.89198 22.2438 7.60732 22.3048C7.47516 22.3353 7.33283 22.3455 7.20066 22.3455C6.41784 22.3455 5.63503 22.3455 4.86237 22.3455C4.75054 22.3455 4.62854 22.3455 4.52688 22.3658C4.37438 22.3963 4.29305 22.5082 4.29305 22.6607C4.29305 22.803 4.36422 22.8945 4.52688 22.9352C4.63871 22.9555 4.75054 22.9657 4.86237 22.9758C5.2182 22.986 5.57403 22.9758 5.94002 22.9962C6.09252 23.0063 6.25518 23.0368 6.37718 23.1182C6.59067 23.2605 6.78384 23.4333 6.98717 23.6062C6.87534 23.7282 6.78384 23.8197 6.71267 23.9213C6.46868 24.2466 6.14335 24.389 5.73669 24.3585C5.60453 24.3483 5.4622 24.3585 5.31986 24.3686C5.31986 24.572 5.3097 24.7346 5.31986 24.9075C5.3402 25.1515 5.44186 25.2328 5.68586 25.2328C6.8245 25.2328 7.96315 25.2328 9.10179 25.2328C9.32546 25.2328 9.40679 25.1515 9.44745 24.938C9.47795 24.7448 9.48812 24.5516 9.44745 24.3483C9.26446 24.3483 9.10179 24.3483 8.92896 24.3483C8.5528 24.3381 8.17664 24.3381 7.81065 24.2975C7.48532 24.2568 7.31249 23.9925 7.32266 23.6367C7.32266 23.291 7.49549 23.0775 7.82082 23.0165C7.94282 22.9962 8.06481 22.986 8.18681 22.986C9.0103 22.986 9.83378 22.986 10.6471 22.9962C11.4096 23.0063 12.0501 22.7623 12.5279 22.1524C12.7719 21.8474 13.0972 21.6949 13.4734 21.6847C13.819 21.6745 14.1749 21.6745 14.5205 21.6745C14.7645 21.6745 14.9983 21.6644 15.2423 21.6542C15.2525 21.583 15.2525 21.5322 15.2525 21.4814C15.2525 20.2411 15.2525 19.0007 15.2423 17.7503C15.2423 17.6689 15.222 17.5774 15.2118 17.4758C15.1102 17.4758 15.0288 17.4758 14.9475 17.4758C14.5104 17.4758 14.0732 17.4859 13.6259 17.4859C13.1887 17.4859 12.8837 17.2826 12.7007 16.8963C12.6804 16.8556 12.6601 16.8048 12.6397 16.7641C12.3144 15.9305 11.6942 15.3815 10.9114 14.9952C10.8911 15.0155 10.8606 15.0155 10.8199 15.0053ZM20.5289 3.01904C20.7627 2.80555 20.9559 2.61238 21.1694 2.43955C21.4032 2.24639 21.7082 2.30739 21.9929 2.28706C21.9929 2.09389 22.0031 1.93123 21.9929 1.7584C21.9827 1.5449 21.9014 1.47374 21.6981 1.43307C21.6472 1.42291 21.5862 1.42291 21.5252 1.42291C20.4577 1.42291 19.3903 1.42291 18.333 1.42291C18.2415 1.42291 18.15 1.42291 18.0686 1.46357C17.9975 1.49407 17.9161 1.56524 17.8958 1.6364C17.8348 1.8499 17.8348 2.06339 17.8755 2.30739C17.967 2.30739 18.0381 2.30739 18.1195 2.30739C18.5058 2.30739 18.9023 2.29722 19.2886 2.30739C19.4614 2.30739 19.6343 2.32772 19.7969 2.36839C20.1223 2.44972 20.2544 2.69372 20.2341 3.09021C20.2138 3.38504 20.0206 3.6087 19.7156 3.64936C19.5631 3.6697 19.4106 3.69003 19.2581 3.69003C18.3431 3.69003 17.4383 3.7002 16.5233 3.69003C15.8015 3.69003 15.2118 3.93403 14.7849 4.53385C14.551 4.85918 14.2257 5.01167 13.819 5.00151C13.4835 4.99134 13.1481 4.98117 12.8227 4.99134C12.5686 4.99134 12.3246 5.01167 12.0602 5.01167C12.0602 6.39431 12.0602 7.76679 12.0602 9.14943C12.1212 9.15959 12.1619 9.16976 12.2127 9.16976C12.6702 9.16976 13.1277 9.17993 13.575 9.16976C14.124 9.15959 14.4189 9.32226 14.6222 9.83058C14.9475 10.6541 15.527 11.2234 16.2997 11.6199C16.3505 11.6504 16.4115 11.6707 16.4725 11.691C16.4928 11.4166 16.503 11.1726 16.5335 10.9184C16.564 10.5727 16.7368 10.4101 17.0723 10.3694C17.2756 10.3491 17.479 10.3287 17.6823 10.3287C19.3394 10.3287 20.9966 10.3287 22.6639 10.3287C22.8469 10.3287 23.0197 10.3287 23.2027 10.3084C23.3755 10.2881 23.4467 10.2067 23.4569 10.0339C23.467 9.88141 23.406 9.77975 23.2332 9.73908C23.1315 9.70858 23.0299 9.69842 22.918 9.69842C21.9929 9.68825 21.0677 9.67809 20.1426 9.66792C20.0613 9.66792 19.9799 9.67809 19.8986 9.65775C19.7868 9.62725 19.6749 9.59675 19.5936 9.52559C19.4106 9.36292 19.2581 9.17993 19.0954 8.99693C19.6139 8.42761 19.7969 8.32594 20.4679 8.32594C21.4236 8.33611 22.369 8.32594 23.3247 8.32594C23.4975 8.32594 23.65 8.29544 23.7822 8.19378C23.955 8.06161 23.955 7.92945 23.7619 7.81762C23.5992 7.71596 23.4162 7.69562 23.223 7.69562C22.186 7.69562 21.1592 7.69562 20.1223 7.68546C19.9596 7.68546 19.7969 7.66512 19.6444 7.62446C19.3496 7.54313 19.2073 7.3093 19.2174 6.96364C19.2276 6.63831 19.3903 6.42481 19.6851 6.36381C19.8071 6.33331 19.9291 6.33331 20.0511 6.32315C21.0474 6.31298 22.0336 6.31298 23.0299 6.31298C23.1417 6.31298 23.2535 6.30281 23.3654 6.27232C23.528 6.23165 23.6094 6.12998 23.5992 6.00799C23.589 5.85549 23.4874 5.73349 23.3247 5.71316C23.2129 5.69283 23.101 5.69283 22.9892 5.69283C22.0336 5.69283 21.0881 5.69283 20.1324 5.69283C20.0003 5.69283 19.8579 5.67249 19.7258 5.65216C19.4208 5.59116 19.2479 5.38783 19.2276 5.07267C19.1971 4.73718 19.3394 4.48302 19.6444 4.38135C19.7766 4.34068 19.9291 4.32035 20.0714 4.32035C20.8644 4.31019 21.6472 4.32035 22.4402 4.32035C22.552 4.32035 22.6639 4.31019 22.7757 4.28985C22.9485 4.25935 23.0197 4.16785 23.0197 4.00519C23.0197 3.84253 22.9384 3.7307 22.7655 3.7002C22.6537 3.67986 22.5419 3.69003 22.43 3.67986C22.125 3.6697 21.8099 3.65953 21.5049 3.64936C21.3524 3.64936 21.2202 3.58837 21.1084 3.49687C20.9051 3.3647 20.7322 3.20204 20.5289 3.01904ZM12.0094 10.5219C11.7349 10.5117 11.5011 10.5016 11.2673 10.4914C10.9114 10.4609 10.7183 10.2881 10.6776 9.93225C10.6573 9.77975 10.6471 9.62725 10.6471 9.47476C10.6471 8.11245 10.6471 6.73997 10.6471 5.37767C10.6471 4.99134 10.6369 4.59485 10.6369 4.20852C10.6369 4.03569 10.6064 3.87303 10.5048 3.72053C10.4539 3.6392 10.3929 3.5477 10.2811 3.55787C10.1388 3.55787 10.0879 3.65953 10.0574 3.7612C10.0168 3.92386 9.99644 4.09669 9.98628 4.25935C9.98628 5.19467 9.98628 6.12998 9.97611 7.0653C9.97611 7.17713 9.95578 7.29913 9.92528 7.40079C9.82361 7.68546 9.57962 7.81762 9.24412 7.79729C8.95946 7.77695 8.75613 7.61429 8.69514 7.32963C8.66464 7.17713 8.65447 7.0043 8.65447 6.84164C8.65447 5.83516 8.65447 4.82868 8.65447 3.82219C8.65447 3.65953 8.6443 3.49687 8.6138 3.3342C8.5833 3.16137 8.48164 3.06988 8.31897 3.06988C8.15631 3.06988 8.06481 3.14104 8.03431 3.31387C8.00381 3.46637 7.99365 3.61886 7.99365 3.77136C7.98348 4.82868 7.98348 5.88599 7.98348 6.9433C7.98348 7.0653 7.97332 7.1873 7.94282 7.3093C7.87165 7.64479 7.62765 7.80745 7.25149 7.79729C6.93633 7.78712 6.71267 7.59396 6.66184 7.28896C6.63134 7.1263 6.62117 6.96364 6.62117 6.80097C6.62117 5.88599 6.62117 4.96084 6.62117 4.04586C6.62117 3.91369 6.60084 3.77136 6.57034 3.6392C6.52968 3.46637 6.43818 3.40537 6.29585 3.41554C6.15352 3.4257 6.06202 3.49687 6.03152 3.64936C6.00102 3.77136 5.99085 3.90353 5.99085 4.03569C5.99085 4.97101 5.99085 5.90632 5.99085 6.84164C5.99085 6.98397 5.98069 7.13647 5.95019 7.2788C5.86885 7.63462 5.65536 7.79729 5.2792 7.78712C4.93354 7.77695 4.68954 7.59396 4.63871 7.2483C4.61838 7.0958 4.60821 6.9433 4.60821 6.79081C4.60821 6.04865 4.61838 5.31667 4.61838 4.57451C4.61838 4.47285 4.60821 4.36102 4.58788 4.25935C4.54721 4.07636 4.45571 4.00519 4.28288 4.00519C4.13039 4.00519 4.04906 4.06619 4.00839 4.25935C3.97789 4.39152 3.97789 4.53385 3.97789 4.66601C3.97789 5.459 3.97789 6.26215 3.97789 7.05513C3.97789 8.22428 3.97789 9.39342 3.97789 10.5626C3.97789 11.2336 4.21172 11.7724 4.78104 12.1689C5.16737 12.4332 5.31986 12.8195 5.3097 13.2872C5.29953 13.7548 5.29953 14.2123 5.28937 14.68C5.28937 14.7613 5.29953 14.8325 5.29953 14.924C6.69234 14.9952 8.06481 14.9443 9.44745 14.9138C9.44745 14.8122 9.45762 14.7308 9.45762 14.6495C9.45762 14.2123 9.44745 13.7752 9.44745 13.338C9.44745 12.9212 9.64062 12.606 10.0269 12.4332C10.1591 12.3722 10.2913 12.3214 10.4234 12.2502C11.1656 11.8842 11.6332 11.2742 12.0094 10.5219ZM15.2728 16.1948C15.405 16.1948 15.4863 16.1948 15.5778 16.1948C15.7405 16.205 15.9032 16.1948 16.0658 16.2253C16.4217 16.2761 16.5843 16.449 16.6352 16.815C16.6555 16.9878 16.6657 17.1504 16.6657 17.3233C16.6657 19.0109 16.6657 20.6985 16.6657 22.3963C16.6657 22.5183 16.6657 22.6403 16.6758 22.7623C16.6758 22.8233 16.686 22.8742 16.6962 22.925C16.7368 23.0673 16.8385 23.1283 16.991 23.1283C17.1333 23.1283 17.2146 23.0775 17.2553 22.925C17.2858 22.803 17.3061 22.6708 17.3061 22.5387C17.3163 21.6542 17.3163 20.7697 17.3163 19.8852C17.3163 19.7836 17.3265 19.6717 17.3468 19.5701C17.418 19.2244 17.6721 19.0312 18.0381 19.0516C18.3533 19.0719 18.6176 19.2956 18.6278 19.6209C18.6583 20.0784 18.6583 20.546 18.6684 21.0035C18.6786 21.705 18.6684 22.4167 18.6888 23.1182C18.6888 23.2198 18.7498 23.3317 18.8006 23.4333C18.8413 23.5147 18.9124 23.596 19.0344 23.5655C19.1564 23.535 19.2378 23.4638 19.2581 23.3418C19.2784 23.169 19.3089 22.986 19.3191 22.8132C19.3293 21.827 19.3293 20.8307 19.3293 19.8446C19.3293 19.7022 19.3394 19.5497 19.3699 19.4074C19.4309 19.0821 19.6749 18.8889 20.0104 18.8889C20.3459 18.8889 20.5899 19.0821 20.6407 19.4074C20.6611 19.5396 20.6712 19.6616 20.6712 19.7937C20.6712 20.2411 20.6712 20.6884 20.6712 21.1357C20.6712 21.6542 20.6712 22.1727 20.6814 22.6912C20.6814 22.8233 20.7119 22.9453 20.7526 23.0775C20.7932 23.23 20.8847 23.2707 21.0271 23.2707C21.1592 23.2605 21.2406 23.1792 21.2609 23.0673C21.2914 22.9453 21.3117 22.8233 21.3117 22.7115C21.3219 22.4878 21.3219 22.254 21.3219 22.0304C21.3219 21.3187 21.3219 20.6172 21.3219 19.9056C21.3219 19.6006 21.4134 19.3261 21.6269 19.1024C21.9624 18.7466 22.491 18.8686 22.6334 19.3362C22.674 19.4786 22.6842 19.6412 22.6842 19.7937C22.6944 20.5257 22.6842 21.2577 22.6842 21.9897C22.6842 22.1625 22.7147 22.3252 22.735 22.498C22.7554 22.6098 22.8265 22.681 22.9485 22.6912C23.0909 22.7013 23.1925 22.6607 23.2434 22.5285C23.2739 22.4573 23.2942 22.376 23.2942 22.2947C23.2942 22.1219 23.284 21.9592 23.2739 21.7864C23.2332 21.1967 23.1824 20.607 23.162 20.0174C23.1214 18.9906 23.1519 17.9739 23.2434 16.9471C23.2739 16.6421 23.3044 16.3371 23.3044 16.022C23.3145 15.412 23.0604 14.9138 22.5622 14.5682C22.1454 14.2733 21.9624 13.887 21.9827 13.3787C21.9929 12.911 21.9929 12.4332 21.9929 11.9655C21.9929 11.9045 21.9827 11.8435 21.9726 11.7927C20.5899 11.7927 19.2276 11.7927 17.8551 11.7927C17.845 11.874 17.845 11.935 17.845 11.996C17.845 12.423 17.845 12.8399 17.8551 13.2669C17.8653 13.7548 17.662 14.1107 17.2045 14.314C17.1638 14.3343 17.113 14.3547 17.0723 14.375C16.3607 14.6698 15.8422 15.1781 15.466 15.839C15.405 15.9406 15.3542 16.0423 15.2728 16.1948ZM11.0334 13.5413C12.2127 14.1005 13.209 14.8122 13.819 16.022C14.124 15.4221 14.4087 14.8732 14.8052 14.4055C15.2118 13.9175 15.6897 13.5312 16.2285 13.2364C15.71 12.8805 15.1712 12.5755 14.7137 12.1689C14.2562 11.7622 13.88 11.2641 13.453 10.7862C12.8939 11.8944 12.1924 12.8907 11.0334 13.5413ZM2.54442 5.01167C2.40209 5.01167 2.28009 5.01167 2.15809 5.01167C1.80226 5.02184 1.71077 5.11334 1.71077 5.459C1.7006 6.45531 1.7006 7.45163 1.69043 8.44794C1.69043 8.59027 1.7006 8.72244 1.71077 8.86477C1.72093 9.0071 1.80226 9.08843 1.93443 9.11893C2.12759 9.16976 2.33092 9.16976 2.53425 9.14943C2.54442 7.77695 2.54442 6.41465 2.54442 5.01167ZM24.7887 17.4961C24.7277 17.7503 24.7277 21.4814 24.7887 21.705C24.9717 21.6847 25.1547 21.6644 25.3377 21.644C25.4698 21.6237 25.541 21.5424 25.5512 21.4204C25.5613 21.2984 25.5816 21.1764 25.5816 21.0544C25.5816 20.0784 25.5816 19.1024 25.5816 18.1264C25.5816 18.0248 25.5715 17.9333 25.5613 17.8316C25.541 17.6588 25.4393 17.5673 25.2767 17.5368C25.1242 17.5266 24.9615 17.5164 24.7887 17.4961Z" fill="#E983CC"/>
</g>
<defs>
<clipPath id="clip0_1535_3409">
<rect width="26.626" height="26.6667" fill="white" transform="translate(0.335938 -0.000366211)"/>
</clipPath>
</defs>
</svg>
