<svg width="277" height="81" viewBox="0 0 277 81" fill="none" xmlns="http://www.w3.org/2000/svg">
<path d="M158.785 27.8522H156.219V18.9465H163.162V20.9088H158.785V27.8522ZM158.634 22.8711H162.709V24.8333H158.634V22.8711Z" fill="white"/>
<path d="M164.367 27.8522V18.9465H168.442C169.197 18.9465 169.952 19.0975 170.556 19.3994C171.159 19.7013 171.612 20.0031 171.914 20.6069C172.216 21.2107 172.367 21.6635 172.367 22.4182C172.367 23.1729 172.216 23.6258 171.914 24.2296C171.612 24.8333 171.159 25.1352 170.556 25.2862C169.952 25.588 169.197 25.739 168.442 25.739H165.726L166.933 24.6824V28.1541L164.367 27.8522ZM166.933 24.6824L165.726 23.4748H168.292C168.744 23.4748 169.197 23.3239 169.499 23.1729C169.801 23.022 169.952 22.5692 169.952 22.2673C169.952 21.8145 169.801 21.5126 169.499 21.3616C169.197 21.2107 168.895 21.0597 168.292 21.0597H165.726L166.933 19.8522V24.6824ZM169.801 27.8522L167.537 24.6824H170.254L172.518 27.8522H169.801Z" fill="white"/>
<path d="M176.149 25.8899H180.828V27.8522H173.734V18.9465H180.677V20.9088H176.149V25.8899ZM175.998 22.4182H180.074V24.2296H175.998V22.4182Z" fill="white"/>
<path d="M185.203 28.003C184.448 28.003 183.845 27.8521 183.09 27.7011C182.486 27.5502 181.882 27.2483 181.43 26.9464L182.335 25.1351C182.788 25.437 183.241 25.5879 183.694 25.7389C184.147 25.8898 184.75 26.0408 185.203 26.0408C185.505 26.0408 185.807 26.0408 186.109 25.8898C186.26 25.8898 186.411 25.7389 186.562 25.5879C186.712 25.437 186.712 25.286 186.712 25.1351C186.712 24.9842 186.562 24.8332 186.411 24.6823C186.26 24.5313 185.958 24.5313 185.656 24.3804C185.354 24.2294 185.052 24.2294 184.599 24.2294C184.297 24.0785 183.845 24.0785 183.543 23.9275C183.241 23.7766 182.788 23.6257 182.486 23.4747C182.184 23.3238 182.033 23.0219 181.732 22.72C181.581 22.4181 181.43 21.9653 181.43 21.5125C181.43 20.9087 181.581 20.4559 181.883 20.154C182.184 19.8521 182.637 19.3992 183.241 19.0974C183.845 18.7955 184.599 18.6445 185.354 18.6445C185.958 18.6445 186.562 18.6445 187.014 18.7955C187.467 18.9464 188.071 19.0974 188.524 19.3992L187.769 21.2106C187.316 20.9087 186.863 20.7577 186.562 20.7577C186.109 20.6068 185.807 20.6068 185.354 20.6068C185.052 20.6068 184.75 20.6068 184.448 20.7577C184.147 20.9087 184.147 20.9087 183.996 21.0596C183.845 21.2106 183.845 21.3615 183.845 21.3615C183.845 21.5125 183.996 21.6634 184.147 21.8143C184.297 21.9653 184.599 21.9653 184.901 22.1162C185.203 22.2672 185.505 22.2672 185.958 22.2672C186.26 22.4181 186.712 22.4181 187.014 22.5691C187.316 22.72 187.618 22.8709 188.071 23.0219C188.373 23.1728 188.675 23.4747 188.826 23.7766C188.977 24.0785 189.127 24.5313 189.127 24.9842C189.127 25.437 188.977 26.0408 188.675 26.4936C188.373 26.9464 187.92 27.2483 187.316 27.5502C186.863 27.8521 186.109 28.003 185.203 28.003Z" fill="white"/>
<path d="M192.753 27.8522H190.188V18.9465H192.753V27.8522ZM196.376 24.3805H192.602V22.2673H196.376V24.3805ZM196.225 18.9465H198.791V27.8522H196.225V18.9465Z" fill="white"/>
<path d="M158.785 45.2106H156.219V36.3049H163.162V38.2672H158.785V45.2106ZM158.634 40.2295H162.709V42.1917H158.634V40.2295Z" fill="white"/>
<path d="M164.367 45.2106V36.3049H168.442C169.197 36.3049 169.952 36.4559 170.556 36.7578C171.159 37.0596 171.612 37.3615 171.914 37.9653C172.216 38.5691 172.367 39.0219 172.367 39.7766C172.367 40.5313 172.216 40.9842 171.914 41.588C171.612 42.1917 171.159 42.4936 170.556 42.6446C169.952 42.9464 169.197 43.0974 168.442 43.0974H165.726L166.933 42.0408V45.5125L164.367 45.2106ZM166.933 42.0408L165.726 40.8332H168.292C168.744 40.8332 169.197 40.6823 169.499 40.5313C169.801 40.3804 169.952 39.9276 169.952 39.6257C169.952 39.1729 169.801 38.871 169.499 38.72C169.197 38.5691 168.895 38.4181 168.292 38.4181H165.726L166.933 37.2106V42.0408ZM169.801 45.2106L167.537 42.0408H170.254L172.518 45.2106H169.801Z" fill="white"/>
<path d="M178.103 45.3615C177.349 45.3615 176.745 45.2106 176.141 45.0596C175.537 44.9087 174.934 44.4559 174.632 44.154C174.179 43.7012 173.877 43.2483 173.575 42.6446C173.273 42.0408 173.273 41.437 173.273 40.8332C173.273 40.2295 173.424 39.6257 173.575 39.0219C173.877 38.4181 174.179 37.9653 174.632 37.5125C175.085 37.0596 175.537 36.7578 176.141 36.6068C176.745 36.4559 177.349 36.3049 178.103 36.3049C178.858 36.3049 179.462 36.4559 180.066 36.6068C180.669 36.7578 181.122 37.2106 181.575 37.5125C182.028 37.8144 182.33 38.4181 182.631 39.0219C182.933 39.6257 182.933 40.2295 182.933 40.8332C182.933 41.588 182.782 42.1917 182.631 42.6446C182.33 43.2483 182.028 43.7012 181.575 44.154C181.122 44.6068 180.669 44.9087 180.066 45.0596C179.462 45.3615 178.858 45.3615 178.103 45.3615ZM178.103 43.3993C178.405 43.3993 178.707 43.3993 179.009 43.2483C179.311 43.0974 179.613 42.9464 179.764 42.7955C179.915 42.6446 180.066 42.3427 180.217 42.0408C180.367 41.7389 180.367 41.437 180.367 40.9842C180.367 40.5313 180.367 40.2295 180.217 39.9276C180.066 39.6257 179.915 39.3238 179.764 39.1729C179.613 39.0219 179.311 38.72 179.009 38.72C178.707 38.72 178.405 38.5691 178.103 38.5691C177.802 38.5691 177.5 38.5691 177.198 38.72C176.896 38.871 176.594 39.0219 176.443 39.1729C176.292 39.3238 175.99 39.6257 175.99 39.9276C175.99 40.2295 175.839 40.5313 175.839 40.9842C175.839 41.437 175.839 41.7389 175.99 42.0408C176.141 42.3427 176.292 42.6446 176.443 42.7955C176.745 42.9464 176.896 43.2483 177.198 43.2483C177.5 43.2483 177.802 43.3993 178.103 43.3993Z" fill="white"/>
<path d="M183.844 45.2105V43.7011L188.976 37.5124L189.277 38.4181H183.844V36.4558H191.542V37.9652L186.259 44.1539L185.957 43.2483H191.692V45.2105H183.844Z" fill="white"/>
<path d="M195.313 43.2483H199.992V45.2106H192.898V36.3049H199.842V38.2672H195.313V43.2483ZM195.162 39.7766H199.238V41.588H195.162V39.7766Z" fill="white"/>
<path d="M201.352 45.2106V36.3049H203.465L208.295 42.1917H207.389V36.3049H209.804V45.2106H207.691L202.861 39.3238H203.767V45.2106H201.352Z" fill="white"/>
<path d="M217.352 45.2106V41.437L217.956 42.9464L214.031 36.3049H216.748L219.616 41.1351H218.107L220.974 36.3049H223.389L219.465 42.9464L220.069 41.437V45.2106H217.352Z" fill="white"/>
<path d="M228.369 45.3615C227.614 45.3615 227.011 45.2106 226.407 45.0596C225.803 44.9087 225.199 44.4559 224.897 44.154C224.445 43.7012 224.143 43.2483 223.841 42.6446C223.539 42.0408 223.539 41.437 223.539 40.8332C223.539 40.2295 223.69 39.6257 223.841 39.0219C224.143 38.4181 224.445 37.9653 224.897 37.5125C225.35 37.0596 225.803 36.7578 226.407 36.6068C227.011 36.4559 227.614 36.3049 228.369 36.3049C229.124 36.3049 229.727 36.4559 230.331 36.6068C230.935 36.7578 231.388 37.2106 231.841 37.5125C232.293 37.9653 232.595 38.4181 232.897 39.0219C233.199 39.6257 233.199 40.2295 233.199 40.8332C233.199 41.588 233.048 42.1917 232.897 42.6446C232.595 43.2483 232.293 43.7012 231.841 44.154C231.388 44.6068 230.935 44.9087 230.331 45.0596C229.727 45.3615 228.973 45.3615 228.369 45.3615ZM228.369 43.3993C228.671 43.3993 228.973 43.3993 229.275 43.2483C229.577 43.0974 229.878 42.9464 230.029 42.7955C230.18 42.6446 230.331 42.3427 230.482 42.0408C230.633 41.7389 230.633 41.437 230.633 40.9842C230.633 40.5313 230.633 40.2295 230.482 39.9276C230.331 39.6257 230.18 39.3238 230.029 39.1729C229.878 39.0219 229.577 38.72 229.275 38.72C228.973 38.72 228.671 38.5691 228.369 38.5691C228.067 38.5691 227.765 38.5691 227.463 38.72C227.162 38.871 226.86 39.0219 226.709 39.1729C226.558 39.3238 226.256 39.6257 226.256 39.9276C226.256 40.2295 226.105 40.5313 226.105 40.9842C226.105 41.437 226.105 41.7389 226.256 42.0408C226.407 42.3427 226.558 42.6446 226.709 42.7955C226.86 42.9464 227.162 43.2483 227.463 43.2483C227.614 43.2483 227.916 43.3993 228.369 43.3993Z" fill="white"/>
<path d="M238.932 45.3615C238.177 45.3615 237.573 45.2106 236.969 45.0596C236.366 44.9087 235.913 44.4559 235.46 44.154C235.007 43.7012 234.705 43.2483 234.403 42.6446C234.102 42.0408 234.102 41.437 234.102 40.8332C234.102 40.0785 234.252 39.4747 234.403 39.0219C234.705 38.4181 235.007 37.9653 235.46 37.5125C235.913 37.0596 236.366 36.7578 236.969 36.6068C237.573 36.4559 238.177 36.3049 238.932 36.3049C239.837 36.3049 240.441 36.4559 241.196 36.7578C241.95 37.0596 242.403 37.5125 242.856 37.9653L241.196 39.4747C240.894 39.1729 240.592 38.871 240.29 38.72C239.988 38.5691 239.535 38.4181 239.082 38.4181C238.781 38.4181 238.328 38.4181 238.026 38.5691C237.724 38.72 237.422 38.871 237.271 39.0219C237.12 39.1729 236.818 39.4747 236.818 39.7766C236.667 40.0785 236.667 40.3804 236.667 40.8332C236.667 41.2861 236.667 41.588 236.818 41.8898C236.969 42.1917 237.12 42.4936 237.271 42.6446C237.422 42.7955 237.724 43.0974 238.026 43.0974C238.328 43.2483 238.63 43.2483 239.082 43.2483C239.535 43.2483 239.837 43.2483 240.139 43.0974C240.441 42.9464 240.894 42.7955 241.196 42.4936L242.554 44.3049C242.101 44.6068 241.497 44.9087 240.743 45.0596C240.29 45.3615 239.535 45.3615 238.932 45.3615ZM240.441 44.003V40.6823H242.705V44.3049L240.441 44.003Z" fill="white"/>
<path d="M248.286 45.3615C246.928 45.3615 246.022 45.0596 245.267 44.3049C244.513 43.5502 244.211 42.6446 244.211 41.2861V36.3049H246.777V41.1351C246.777 41.8898 246.928 42.4936 247.23 42.7955C247.532 43.0974 247.984 43.2483 248.437 43.2483C249.041 43.2483 249.343 43.0974 249.645 42.7955C249.947 42.4936 250.097 41.8898 250.097 41.1351V36.3049H252.512V41.2861C252.512 42.6446 252.211 43.5502 251.456 44.3049C250.701 45.0596 249.645 45.3615 248.286 45.3615Z" fill="white"/>
<path d="M254.18 45.2106V36.3049H258.255C259.01 36.3049 259.764 36.4559 260.368 36.7578C260.972 37.0596 261.425 37.3615 261.727 37.9653C262.028 38.4181 262.179 39.0219 262.179 39.7766C262.179 40.5313 262.028 40.9842 261.727 41.588C261.425 42.0408 260.972 42.4936 260.368 42.6446C259.764 42.9464 259.01 43.0974 258.255 43.0974H255.538L256.746 42.0408V45.5125L254.18 45.2106ZM256.595 42.0408L255.387 40.8332H257.953C258.557 40.8332 258.859 40.6823 259.161 40.5313C259.462 40.3804 259.613 39.9276 259.613 39.6257C259.613 39.1729 259.462 38.871 259.161 38.72C258.859 38.5691 258.557 38.4181 257.953 38.4181H255.387L256.595 37.2106V42.0408ZM259.613 45.2106L257.349 42.0408H260.066L262.33 45.2106H259.613Z" fill="white"/>
<path d="M265.35 45.2106V38.2672H262.633V36.3049H270.632V38.2672H267.916V45.2106H265.35Z" fill="white"/>
<path d="M155.164 62.569L159.088 53.6633H161.503L165.428 62.569H162.862L159.843 54.8709H160.9L157.881 62.569H155.164ZM157.428 60.9086L158.032 59.0973H162.409L163.013 60.9086H157.428Z" fill="white"/>
<path d="M166.18 62.569V53.6633H168.293L173.123 59.5501H172.066V53.6633H174.481V62.569H172.368L167.538 56.6822H168.595V62.569H166.18Z" fill="white"/>
<path d="M176.297 62.569V53.6633H180.523C181.429 53.6633 182.334 53.8143 183.089 54.2671C183.844 54.569 184.447 55.1728 184.9 55.7765C185.353 56.3803 185.504 57.286 185.504 58.0407C185.504 58.9464 185.353 59.7011 184.9 60.4558C184.447 61.0596 183.844 61.6633 183.089 61.9652C182.334 62.2671 181.429 62.569 180.523 62.569H176.297ZM178.863 60.6067H180.372C180.825 60.6067 181.278 60.4558 181.731 60.3048C182.032 60.1539 182.334 59.852 182.636 59.3992C182.787 59.0973 182.938 58.6445 182.938 58.0407C182.938 57.5879 182.787 57.135 182.636 56.6822C182.485 56.3803 182.183 56.0784 181.731 55.7765C181.429 55.6256 180.976 55.4747 180.372 55.4747H178.863V60.6067Z" fill="white"/>
<path d="M190.336 62.569V53.6633H192.449L196.072 59.7011H195.015L198.637 53.6633H200.751V62.569H198.487V57.135H198.939L196.222 61.6633H195.166L192.449 57.135H192.902V62.569H190.336Z" fill="white"/>
<path d="M206.932 62.7199C206.177 62.7199 205.573 62.569 204.969 62.418C204.366 62.1162 203.762 61.8143 203.46 61.5124C203.007 61.0596 202.705 60.6067 202.403 60.003C202.102 59.3992 202.102 58.7954 202.102 58.1916C202.102 57.5879 202.253 56.9841 202.403 56.3803C202.705 55.7765 203.007 55.3237 203.46 54.8709C203.913 54.418 204.366 54.1162 204.969 53.9652C205.573 53.6633 206.177 53.6633 206.932 53.6633C207.686 53.6633 208.29 53.8143 208.894 53.9652C209.497 54.2671 209.95 54.569 210.403 54.8709C210.856 55.3237 211.158 55.7765 211.46 56.3803C211.762 56.9841 211.762 57.5879 211.762 58.1916C211.762 58.9463 211.611 59.5501 211.46 60.003C211.158 60.6067 210.856 61.0596 210.403 61.5124C209.95 61.9652 209.497 62.2671 208.894 62.418C208.29 62.7199 207.535 62.7199 206.932 62.7199ZM206.932 60.7577C207.233 60.7577 207.535 60.7577 207.837 60.6067C208.139 60.4558 208.441 60.3048 208.592 60.1539C208.743 60.003 208.894 59.7011 209.045 59.3992C209.196 59.0973 209.196 58.7954 209.196 58.3426C209.196 57.8897 209.196 57.5879 209.045 57.286C208.894 56.9841 208.743 56.6822 208.592 56.5313C208.441 56.2294 208.139 56.0784 207.837 56.0784C207.535 56.0784 207.233 55.9275 206.932 55.9275C206.63 55.9275 206.328 55.9275 206.026 56.0784C205.724 56.2294 205.422 56.3803 205.271 56.5313C205.12 56.6822 204.818 56.9841 204.818 57.286C204.667 57.5879 204.668 57.8897 204.668 58.3426C204.668 58.7954 204.667 59.0973 204.818 59.3992C204.969 59.7011 205.12 60.003 205.271 60.1539C205.422 60.4558 205.724 60.6067 206.026 60.6067C206.177 60.6067 206.63 60.7577 206.932 60.7577Z" fill="white"/>
<path d="M213.125 62.569V53.6633H217.2C217.955 53.6633 218.71 53.8143 219.313 54.1162C219.917 54.418 220.37 54.7199 220.672 55.3237C220.974 55.7765 221.125 56.3803 221.125 57.135C221.125 57.8897 220.974 58.3426 220.672 58.9463C220.37 59.3992 219.917 59.852 219.313 60.003C218.71 60.1539 217.955 60.4558 217.2 60.4558H214.483L215.691 59.3992V62.8709L213.125 62.569ZM215.54 59.3992L214.332 58.1916H216.898C217.502 58.1916 217.804 58.0407 218.106 57.8897C218.408 57.7388 218.559 57.286 218.559 56.9841C218.559 56.5313 218.408 56.2294 218.106 56.0784C217.804 55.7765 217.502 55.7765 216.898 55.7765H214.332L215.54 54.569V59.3992ZM218.559 62.569L216.295 59.3992H219.012L221.276 62.569H218.559Z" fill="white"/>
<path d="M224.899 60.6067H229.578V62.569H222.484V53.6633H229.427V55.6256H224.899V60.6067ZM224.748 57.135H228.824V58.9463H224.748V57.135Z" fill="white"/>
<path d="M143.7 75.7012C143.096 75.7012 142.492 75.2483 142.492 74.4936V7.17288C142.492 6.56911 142.945 5.96533 143.7 5.96533C144.454 5.96533 144.907 6.41816 144.907 7.17288V74.6446C144.907 75.0974 144.454 75.7012 143.7 75.7012Z" fill="white"/>
<path d="M128.294 24.9842C127.388 23.4748 125.879 22.5691 123.766 22.2672C123.464 22.2672 123.162 22.2672 122.86 22.2672C121.652 22.2672 120.445 22.5691 119.237 23.1729C118.181 23.7766 117.124 24.6823 116.37 25.7389C116.823 24.6823 117.275 23.9276 117.577 23.1729L117.879 22.5691L117.275 21.9653C116.672 21.2106 115.917 20.7578 115.162 20.4559C114.558 20.3049 113.955 20.154 113.653 20.154C113.351 20.154 113.049 20.154 112.747 20.154C112.294 20.154 111.993 20.154 111.54 20.3049C110.03 20.6068 109.427 21.5125 109.125 22.2672C108.974 23.0219 108.672 23.6257 108.37 24.3804C108.068 25.2861 107.314 26.4936 106.408 28.0031C105.502 29.5125 104.597 30.871 103.54 31.9276C103.238 32.3804 102.936 32.6823 102.634 32.8332C102.634 32.6823 102.634 32.6823 102.634 32.5314C102.936 31.4748 103.54 30.2672 104.295 28.7578C105.049 27.2483 105.804 25.8898 106.559 24.6823C107.314 23.4748 108.068 22.5691 108.521 21.9653L109.125 21.2106L108.672 20.6068C108.068 20.0031 107.314 19.5502 106.559 19.2483C105.804 18.9464 105.2 18.7955 104.597 18.6446C104.295 18.6446 103.842 18.6446 103.54 18.6446C103.389 18.6446 103.238 18.6446 103.087 18.6446C101.88 18.6446 100.974 19.2483 100.37 20.154C99.6157 21.5125 98.7101 23.0219 97.9554 24.6823C97.2008 26.3427 96.7479 27.7012 96.4461 28.7578V28.9087C95.5405 29.9653 94.7858 30.72 94.182 31.3238C94.0311 31.4748 93.7292 31.6257 93.5783 31.7766C93.5783 31.4748 93.7292 31.0219 94.0311 30.2672C94.7858 28.6068 95.6914 26.4936 96.8989 24.2295C98.1064 21.9653 99.3139 19.8521 100.37 18.0408C101.729 15.7766 102.333 15.0219 102.634 14.72L103.238 13.9653L102.484 13.3615C101.88 12.7578 101.125 12.3049 100.37 12.0031C99.6157 11.7012 99.012 11.5502 98.4082 11.3993C98.1064 11.3993 97.8045 11.3993 97.5026 11.3993C97.3517 11.3993 97.2008 11.3993 97.0498 11.3993C95.8423 11.3993 94.9367 12.0031 94.333 12.9087C92.9745 15.1729 91.767 17.437 90.7105 20.0031C90.7105 19.5502 90.7105 19.3993 90.7105 19.0974C90.5595 18.1917 90.4086 17.2861 89.9558 16.6823C89.3521 15.7766 88.5974 15.3238 87.5408 15.3238C87.3899 15.3238 87.3899 15.3238 87.2389 15.3238H86.9371H86.7861C85.5786 15.6257 84.5221 16.3804 83.4655 17.437L83.0127 17.2861C82.258 16.8332 81.5034 16.5314 80.5977 16.5314C79.994 16.5314 79.5412 16.3804 79.0884 16.3804C78.9374 16.3804 78.6356 16.3804 78.4846 16.3804C78.0318 16.3804 77.579 16.5314 77.1262 16.6823C76.2206 16.9842 75.4659 17.437 75.0131 18.1917L74.2584 17.7389C74.1075 17.588 73.8056 17.588 73.6547 17.437C73.9565 17.2861 74.2584 17.1351 74.4093 16.9842C75.164 16.5314 76.0696 15.4748 76.0696 13.5125V13.0597C76.0696 12.3049 75.6168 11.7012 75.0131 11.2483C74.4093 10.7955 73.3528 10.6446 71.8434 10.4936H71.5415C70.1831 10.6446 69.1266 11.0974 68.5228 12.0031C67.9191 12.9087 67.6172 13.9653 67.7681 14.871C67.7681 15.4748 68.07 16.2295 68.9756 16.8332C68.8247 16.8332 68.6738 16.8332 68.5228 16.9842C67.6172 17.2861 66.8625 17.8898 66.4097 18.6446C66.4097 18.3427 66.4097 18.1917 66.2588 18.0408C66.1078 17.588 65.9569 17.2861 65.655 16.9842C65.0513 16.3804 64.4475 16.0785 63.6928 16.0785C63.391 16.0785 63.24 16.0785 62.9382 16.0785C62.6363 16.0785 62.1835 16.0785 61.8816 16.2295C60.5232 16.6823 59.4666 18.0408 58.8629 20.4559L57.8063 20.154C56.9007 19.8521 56.146 19.7012 55.3913 19.7012C54.7876 19.7012 54.3348 19.7012 53.882 20.0031C53.4292 20.154 52.9763 20.4559 52.5235 20.7578C51.9198 21.3615 51.316 21.9653 51.0142 22.871L50.2595 22.5691C49.6557 22.4181 49.052 22.2672 48.2973 22.2672C48.1464 22.2672 47.8445 22.2672 47.6936 22.2672C46.9389 22.2672 46.1842 22.4181 45.7314 22.5691C45.2786 22.72 44.9767 22.871 44.5239 23.0219C42.4108 24.2295 42.1089 27.0974 43.7692 31.9276L44.0711 32.9842C44.373 33.8898 44.6748 34.6446 45.1276 35.3993C44.9767 35.2483 44.8258 35.0974 44.8258 35.0974C44.0711 34.3427 43.1655 34.0408 42.1089 33.8898C41.958 33.8898 41.807 33.8898 41.6561 33.8898C39.2411 33.8898 36.3733 35.3993 33.6565 37.0597L33.2037 37.2106L33.0527 37.3615C31.8452 37.9653 30.7887 38.72 29.5812 39.3238C28.9774 39.6257 28.3737 39.9276 27.7699 40.2295C27.619 40.2295 27.4681 40.3804 27.4681 40.3804C27.3171 40.3804 27.3171 40.5314 27.1662 40.5314C27.1662 40.5314 27.1662 40.5314 27.0153 40.5314C26.8643 40.5314 26.8643 40.5314 26.7134 40.6823C26.7134 40.6823 26.7134 40.6823 26.5625 40.6823C26.5625 40.6823 26.4115 40.6823 26.4115 40.8332C26.4115 40.8332 26.4115 40.8332 26.2606 40.8332C26.2606 40.8332 26.1096 40.8332 26.1096 40.9842C26.1096 40.9842 26.1096 40.9842 25.9587 40.9842C25.9587 40.9842 25.8078 40.9842 25.8078 41.1351C25.8078 41.1351 25.8078 41.1351 25.6568 41.1351H25.5059C25.5059 41.1351 25.5059 41.1351 25.355 41.1351H25.204C25.204 41.1351 25.204 41.1351 25.0531 41.1351H24.9022C24.9022 41.1351 24.9022 41.1351 24.7512 41.1351H24.6003C24.6003 41.1351 24.6003 41.1351 24.4493 41.1351H24.2984C24.2984 41.1351 24.2984 41.1351 24.1475 41.1351H23.9965C23.9965 41.1351 23.9965 41.1351 23.8456 41.1351H23.6947C23.6947 41.1351 23.6947 41.1351 23.5437 41.1351H23.3928C23.3928 41.1351 23.3928 41.1351 23.2419 41.1351C25.8078 38.2672 30.1849 33.1351 31.8452 31.3238C31.8452 31.3238 31.8452 31.3238 31.9962 31.1729C37.7318 24.3804 37.8827 14.4181 32.298 7.47475C31.8452 6.87098 31.0906 6.56909 30.3359 6.56909C29.1284 6.56909 28.0718 7.47475 27.9209 8.6823C26.8643 14.5691 23.6947 25.437 14.9403 32.5314C9.35569 37.0597 6.33696 41.588 6.18603 45.8144C6.03509 48.5314 7.09164 50.9465 9.35569 52.9087C10.5632 53.9653 11.9216 54.72 13.7329 54.871C13.8838 54.871 14.0347 54.871 14.1857 54.871C14.4875 54.871 14.6385 54.871 14.9403 54.871C15.846 54.871 16.7516 54.72 17.8081 54.5691C18.4119 54.4181 19.0156 54.2672 19.7703 54.1163C19.9213 54.1163 20.0722 53.9653 20.2231 53.9653H20.3741C20.525 53.9653 20.525 53.9653 20.6759 53.8144H20.8269C20.8269 53.8144 20.9778 53.8144 21.1287 53.8144H21.2797H21.4306H21.5816C21.5816 53.8144 21.7325 53.8144 21.7325 53.6634H21.8834C21.8834 53.6634 22.0344 53.6634 22.0344 53.5125H22.1853C22.1853 53.5125 22.3362 53.5125 22.3362 53.3615H22.4872C22.4872 53.3615 22.6381 53.3615 22.6381 53.2106H22.789C22.789 53.2106 22.94 53.2106 22.94 53.0597H23.0909C23.0909 53.0597 23.2419 53.0597 23.2419 52.9087H23.3928C23.3928 52.9087 23.5437 52.9087 23.5437 52.7578H23.6947C23.8456 52.7578 23.8456 52.6068 23.9965 52.6068C23.9965 52.6068 23.9965 52.6068 24.1475 52.6068C24.2984 52.6068 24.4493 52.4559 24.4493 52.4559C24.6003 52.4559 24.6003 52.3049 24.7512 52.3049C24.7512 52.3049 24.7512 52.3049 24.9022 52.3049C24.9022 52.3049 25.0531 52.3049 25.0531 52.154C23.3928 55.0219 21.8834 59.0974 23.5437 63.0219C26.2606 69.6634 33.8074 72.3804 38.4864 72.9842C39.0902 73.1351 39.543 72.6823 39.8449 72.2295C39.9958 71.7766 39.8449 71.1729 39.3921 70.871C37.279 69.3615 33.6565 66.0408 33.3546 62.871C33.2037 60.3049 33.3546 58.6446 40.5996 50.6446C44.0711 46.72 46.0333 43.3993 46.3351 40.6823C46.4861 39.6257 46.3351 38.5691 46.0333 37.6634C46.637 38.4181 47.2408 39.0219 47.8445 39.6257C48.2973 39.9276 48.7501 40.0785 49.6557 40.2295C49.8067 40.2295 50.1086 40.2295 50.2595 40.2295C50.7123 40.2295 51.0142 40.2295 51.316 40.0785C51.7689 39.9276 52.0707 39.9276 52.2217 39.7766C52.8254 39.6257 53.2782 39.3238 53.5801 39.0219L54.0329 38.5691H54.6367C54.4857 37.8144 54.1838 36.6068 54.0329 34.7955C54.7876 36.0031 55.3913 36.9087 56.146 37.5125C56.5988 37.8144 57.0516 38.1163 57.9573 38.1163C58.1082 38.1163 58.4101 38.1163 58.561 38.1163C59.0138 38.1163 59.3157 38.1163 59.6176 37.9653C60.0704 37.8144 60.3722 37.8144 60.5232 37.6634C61.1269 37.5125 61.5797 37.2106 62.0325 36.9087L62.4854 36.4559L62.3344 35.8521C62.1835 35.0974 62.0325 34.0408 62.0325 32.3804C62.0325 30.72 62.1835 29.0597 62.4854 27.2483C62.7872 25.437 63.24 23.7766 63.6928 22.4181C64.1457 21.2106 64.7494 20.4559 65.5041 20.154C65.2022 21.3615 64.9003 22.5691 64.5985 23.9276C64.1457 25.7389 63.9947 27.2483 63.9947 28.3049C63.9947 29.3615 63.9947 30.1163 63.9947 30.5691C64.1457 31.7766 64.4475 32.8332 64.9003 33.8898C65.3531 34.7955 66.5606 36.0031 68.6737 36.0031H68.8247C70.0322 35.8521 71.2397 35.2483 72.2962 34.0408C72.749 33.437 73.3528 32.9842 73.8056 32.2295C74.1075 32.8332 74.4093 33.437 74.7112 33.8898C75.164 34.3427 75.6168 34.7955 76.3715 34.9465C76.8243 35.0974 77.2771 35.2483 77.7299 35.2483C77.7299 35.2483 77.8809 35.2483 78.0318 35.2483C78.4846 35.2483 79.0884 35.0974 79.5412 34.7955L79.994 34.4936V33.8898C80.1449 31.7766 80.5977 29.9653 81.3524 28.154C81.8052 26.9465 82.258 25.8898 82.7108 25.1351L83.6165 25.8898C84.3712 26.4936 85.2768 26.7955 86.0314 26.7955C86.1824 26.7955 86.1824 26.7955 86.3333 26.7955C86.7861 26.7955 87.088 26.6446 87.3899 26.4936C87.5408 26.3427 87.6918 26.3427 87.8427 26.1917C87.5408 27.3993 87.2389 28.4559 87.088 29.3615C86.9371 30.5691 86.9371 31.6257 87.088 32.6823C87.3899 34.3427 88.4464 35.5502 90.1067 36.0031H90.2577C90.4086 36.0031 90.7105 36.0031 90.8614 36.0031C91.918 36.0031 92.9745 35.7012 94.182 34.9465C94.6348 34.6446 95.2386 34.1917 95.6914 33.8898C95.6914 34.0408 95.6914 34.1917 95.8423 34.3427C96.1442 35.3993 97.0498 36.7578 99.1629 37.2106C99.3139 37.2106 99.4648 37.2106 99.7667 37.2106C100.672 37.2106 101.427 36.9087 102.333 36.4559C101.276 38.2672 100.521 38.871 100.069 39.1729C99.3139 39.6257 98.8611 39.7766 98.7101 39.7766C98.7101 39.7766 98.7101 39.7766 98.5592 39.7766C98.1064 39.7766 97.6536 39.4748 97.2008 39.0219L95.8423 37.5125C95.8423 37.5125 95.6914 37.5125 95.6914 37.6634L95.8423 39.7766C95.8423 41.1351 96.4461 42.0408 97.2008 42.7955C97.9554 43.3993 98.7101 43.8521 99.4648 44.0031C100.069 44.154 100.521 44.3049 100.823 44.3049C100.974 44.3049 101.276 44.3049 101.427 44.3049C103.54 44.3049 105.502 43.2483 107.163 41.2861C108.823 39.4748 110.332 37.2106 111.54 34.6446C111.993 33.7389 112.445 32.8332 112.898 31.9276C112.898 32.0785 112.898 32.2295 112.747 32.3804C112.445 34.7955 112.747 36.9087 113.804 38.4181C114.558 39.6257 115.766 40.2295 117.426 40.5314C117.879 40.5314 118.332 40.6823 118.634 40.6823C120.294 40.6823 121.652 40.2295 123.011 39.3238C124.671 38.2672 125.879 36.9087 126.784 35.2483C127.69 33.588 128.294 31.9276 128.596 30.2672C129.35 28.4559 129.048 26.6446 128.294 24.9842ZM57.9573 24.3804C58.1082 22.4181 58.2591 21.8144 58.4101 21.5125L58.8629 20.6068C58.7119 21.2106 58.561 21.9653 58.4101 22.72C58.2591 24.0785 58.1082 25.588 57.9573 26.9464C57.9573 26.0408 57.9573 25.1351 57.9573 24.3804ZM121.2 36.3049C120.747 36.7578 120.294 36.9087 119.992 36.9087C119.992 36.4559 119.992 36.154 119.992 36.0031C119.992 35.3993 120.294 34.7955 120.445 34.1917C120.747 33.1351 121.2 32.2295 121.803 31.1729C122.407 30.2672 122.86 29.3615 123.464 28.7578C123.917 28.3049 124.218 28.0031 124.52 28.0031C124.671 28.0031 124.671 28.0031 124.822 28.154C124.822 28.3049 124.973 28.6068 124.822 29.3615C124.671 30.5691 124.067 32.0785 123.162 33.588C122.558 34.9465 121.803 35.7012 121.2 36.3049ZM74.7112 19.0974C74.4093 20.3049 73.9565 21.8144 73.6547 23.4748C73.3528 25.1351 73.2018 26.3427 73.3528 27.3993C72.5981 28.9087 71.9944 29.9653 71.3906 30.72C71.2397 30.871 71.0887 31.0219 70.9378 31.1729C70.9378 31.0219 70.9378 30.871 70.9378 30.72C71.0887 29.6634 71.3906 28.3049 71.6925 26.6446C72.1453 24.9842 72.5981 23.4748 73.0509 22.1163C73.8056 20.9087 74.2584 19.8521 74.7112 19.0974ZM83.9183 24.6823L83.0127 25.437C83.3146 24.9842 83.6165 24.5314 83.9183 24.0785C84.3711 23.4748 84.673 23.0219 84.824 22.871C84.824 23.4748 84.5221 24.0785 83.9183 24.6823Z" fill="#57FFFF"/>
<path d="M130.109 25.286C129.053 23.4747 127.392 22.569 124.978 22.1162C124.676 22.1162 124.374 22.1162 124.072 22.1162C122.713 22.1162 121.355 22.4181 120.148 23.1728C119.997 23.1728 119.846 23.3237 119.846 23.3237L119.997 23.0218L119.242 22.1162C118.487 21.2105 117.733 20.7577 116.827 20.4558C116.072 20.3049 115.619 20.1539 115.318 20.003C115.016 20.003 114.563 20.003 114.261 20.003C113.808 20.003 113.355 20.003 112.903 20.1539C112.148 20.3049 111.393 20.6067 110.94 21.0596L110.639 20.7577C109.884 20.1539 109.129 19.5501 108.224 19.2483C107.469 18.9464 106.714 18.7954 106.11 18.6445C105.658 18.6445 105.356 18.4935 104.903 18.4935C104.752 18.4935 104.601 18.4935 104.45 18.4935C103.695 18.4935 103.092 18.7954 102.488 19.0973C102.488 19.0973 102.488 18.9464 102.639 18.9464C103.997 16.6822 104.601 15.9275 104.903 15.6256L106.11 14.4181L104.752 13.2105C103.997 12.6067 103.243 12.1539 102.337 11.7011C101.582 11.3992 100.828 11.2483 100.224 11.0973C99.922 11.0973 99.4692 11.0973 99.1673 11.0973C99.0164 11.0973 98.8655 11.0973 98.7145 11.0973C97.0542 11.3992 95.8467 12.003 95.0921 13.2105C94.1864 14.72 93.2808 16.3803 92.3752 18.1917C92.2243 17.7388 92.0733 17.286 91.7715 16.9841C91.1677 15.9275 89.9602 15.3237 88.7527 15.3237C88.6018 15.3237 88.4509 15.3237 88.2999 15.3237H87.8471H87.6962C86.4887 15.6256 85.4321 16.3803 84.3756 17.286C83.6209 16.8332 82.7153 16.5313 81.8097 16.5313C81.2059 16.5313 80.7531 16.3803 80.1493 16.3803C79.8475 16.3803 79.6965 16.3803 79.5456 16.3803C79.0928 16.3803 78.64 16.5313 78.0362 16.6822C77.8853 16.6822 77.5834 16.8332 77.4325 16.9841C77.7344 16.3803 78.0362 15.4747 78.0362 14.4181V13.9652C77.8853 12.9086 77.4325 12.1539 76.6778 11.5501C75.9231 11.0973 74.7156 10.7954 73.2063 10.7954H73.0553H72.6025C70.9422 10.9464 69.7347 11.5501 69.131 12.7577C68.3763 13.8143 68.0744 15.0218 68.2254 16.0784C68.2254 16.6822 68.5272 17.1351 68.8291 17.5879C68.5272 17.7388 68.2254 17.8898 67.9235 18.1917C67.7726 17.8898 67.6216 17.7388 67.3197 17.4369C66.716 16.8332 65.9613 16.3803 65.0557 16.2294C64.7538 16.2294 64.4519 16.2294 64.1501 16.2294C63.6973 16.2294 63.2445 16.2294 62.9426 16.3803C61.4332 16.8332 60.3767 18.1917 59.622 20.3049L59.3201 20.1539C58.4145 19.852 57.5089 19.7011 56.7542 19.7011C56.1504 19.7011 55.5467 19.852 54.943 20.003C54.3392 20.1539 53.8864 20.4558 53.4336 20.9086C52.8298 21.3615 52.377 21.9652 51.9242 22.72H51.6223C50.8677 22.569 50.2639 22.4181 49.5092 22.4181C49.3583 22.4181 49.0564 22.4181 48.9055 22.4181C47.9999 22.4181 47.3961 22.569 46.7924 22.8709C46.3396 23.0218 45.8868 23.1728 45.4339 23.4747C43.019 24.8332 42.7171 28.003 44.3774 33.135L44.6793 34.1917C44.6793 34.1917 44.6793 34.3426 44.8302 34.3426C44.3774 34.1917 43.9246 34.0407 43.4718 34.0407C43.3208 34.0407 43.1699 34.0407 43.019 34.0407C40.453 34.0407 37.4343 35.7011 34.7175 37.2105L34.2646 37.5124C33.2081 38.1162 32.0006 38.72 30.7931 39.4747C30.1894 39.7766 29.5856 40.0784 28.9819 40.3803C28.8309 40.3803 28.68 40.5313 28.68 40.5313L28.3781 40.6822L28.0762 40.8332L27.9253 40.9841C30.3403 38.2671 33.2081 34.9464 34.4156 33.5879C34.4156 33.5879 34.4156 33.5879 34.5665 33.4369V33.286C40.604 26.1917 40.604 15.7766 34.8684 8.53128C34.2646 7.77656 33.359 7.32373 32.3025 7.32373C30.7931 7.32373 29.4347 8.38033 29.1328 10.0407C28.0762 15.7766 25.0575 26.4935 16.3032 33.4369C10.5676 38.1162 7.39794 42.7954 7.24701 47.1728C7.09607 50.0407 8.30356 52.6067 10.5676 54.8709C11.7751 56.0784 13.4354 56.8332 15.2466 56.9841C15.3976 56.9841 15.5485 56.9841 15.6995 56.9841H15.8504C16.1523 56.9841 16.3032 56.9841 16.6051 56.9841C17.5107 56.9841 18.5672 56.8332 19.6238 56.6822C20.2275 56.5313 20.9822 56.3803 21.586 56.2294C21.7369 56.2294 21.8878 56.0784 22.0388 56.0784H22.1897C22.3407 56.0784 22.3407 56.0784 22.4916 56.0784H22.6425C22.7935 56.0784 22.7935 56.0784 22.9444 55.9275H23.0953C23.0953 55.9275 23.2463 55.9275 23.3972 55.7766H23.5482C23.5482 55.7766 23.6991 55.7766 23.85 55.6256H24.001C24.001 55.6256 24.1519 55.6256 24.1519 55.4747H24.3028C24.3028 55.4747 24.4538 55.4747 24.4538 55.3237H24.6047C24.6047 55.3237 24.7556 55.3237 24.7556 55.1728H24.9066L25.2085 55.0218H25.3594C24.1519 57.7388 23.3972 61.2105 24.7556 64.6822C27.3216 71.1728 34.4156 74.3426 40.3021 75.0973C40.453 75.0973 40.453 75.0973 40.604 75.0973C41.3587 75.0973 42.1133 74.6445 42.4152 73.7388C42.7171 72.9841 42.4152 72.0784 41.6605 71.6256C39.0946 69.8143 36.0759 66.7954 35.9249 64.2294C35.774 62.1162 35.6231 60.7577 43.019 52.4558C46.6414 48.3803 48.6036 45.0596 48.9055 42.1917C48.9055 41.8898 48.9055 41.5879 48.9055 41.4369C49.0564 41.5879 49.0564 41.5879 49.2074 41.7388C49.6602 42.1917 50.4149 42.3426 51.3205 42.4935C51.6223 42.4935 51.7733 42.4935 52.0752 42.4935C52.528 42.4935 52.9808 42.4935 53.2826 42.3426C53.7355 42.1917 54.0373 42.1917 54.1883 42.0407C54.792 41.8898 55.3958 41.5879 55.8486 41.1351L56.6032 40.3803L56.3014 39.3237C56.3014 39.0218 56.1504 38.8709 56.1504 38.569C56.3014 38.72 56.6032 39.0218 56.7542 39.1728C57.207 39.6256 57.9617 39.9275 59.0182 39.9275C59.3201 39.9275 59.471 39.9275 59.7729 39.9275C60.2257 39.9275 60.6785 39.9275 60.9804 39.7766C61.4332 39.6256 61.7351 39.6256 61.886 39.4747C62.4898 39.3237 63.0935 39.0218 63.5463 38.569L64.301 37.8143L63.9991 36.7577C63.8482 36.3049 63.6973 35.3992 63.6973 33.5879C63.6973 32.0784 63.8482 30.2671 64.1501 28.4558C64.301 27.5501 64.452 26.6445 64.7538 25.7388C64.452 27.2483 64.301 28.4558 64.301 29.3615C64.301 30.4181 64.301 31.1728 64.301 31.6256C64.4519 32.9841 64.7538 34.1917 65.3576 35.0973C66.2632 36.7577 67.7726 37.5124 69.7347 37.6633H69.8857H70.0366C71.395 37.5124 72.7535 36.7577 73.961 35.5501C74.2628 35.2483 74.5647 34.9464 74.7156 34.6445C74.8666 34.9464 75.0175 35.0973 75.1684 35.3992C75.6213 36.003 76.3759 36.4558 77.1306 36.7577C77.7344 36.9086 78.1872 37.0596 78.64 37.0596C78.7909 37.0596 78.7909 37.0596 78.9419 37.0596C79.5456 37.0596 80.1493 36.7577 80.7531 36.4558L81.5078 36.003V35.0973C81.6587 33.1351 82.1115 31.1728 82.7153 29.5124C83.0171 28.7577 83.319 28.003 83.7718 27.2483L84.0737 27.3992C84.9793 28.1539 86.0359 28.4558 86.9415 28.4558C87.0924 28.4558 87.0924 28.4558 87.2434 28.4558C87.3943 28.4558 87.5452 28.4558 87.6962 28.4558C87.5452 29.0596 87.3943 29.6634 87.3943 30.2671C87.2434 31.6256 87.2434 32.6822 87.3943 33.8898C87.6962 35.852 89.0546 37.2105 91.0168 37.6633H91.1677H91.3187C91.6205 37.6633 91.7715 37.6633 92.0733 37.6633C93.2808 37.6633 94.4883 37.2105 95.6958 36.4558C95.9977 36.3049 96.1486 36.1539 96.4505 36.003C96.9033 37.0596 97.9599 38.4181 100.073 38.8709C100.224 38.8709 100.526 38.8709 100.677 38.8709C100.828 38.8709 101.13 38.8709 101.28 38.8709C100.979 39.1728 100.677 39.4747 100.526 39.4747C99.7711 39.9275 99.4692 39.9275 99.4692 39.9275C99.1674 39.9275 98.7145 40.6822 98.4127 40.2294L97.9599 40.0784C97.8089 39.9275 97.658 39.0218 97.3561 39.0218C97.0542 39.0218 96.9033 39.1728 96.7524 39.3237C96.6014 39.4747 96.4505 38.1162 96.4505 38.4181L96.6014 40.5313C96.7524 42.0407 97.2052 43.2483 98.2617 44.003C99.1673 44.6067 99.922 45.0596 100.677 45.3615C101.28 45.5124 101.884 45.6634 102.186 45.6634C102.488 45.6634 102.639 45.6634 102.79 45.6634C105.054 45.6634 107.167 44.4558 109.129 42.3426C110.639 40.5313 112.148 38.4181 113.506 35.852C113.657 37.2105 114.11 38.4181 114.714 39.4747C115.619 40.8332 116.978 41.5879 118.789 41.8898C119.242 41.8898 119.695 42.0407 120.148 42.0407C121.808 42.0407 123.468 41.5879 124.978 40.6822C126.638 39.6256 127.996 38.1162 129.053 36.3049C129.958 34.6445 130.713 32.8332 130.864 31.0218C131.317 28.9086 131.015 26.9464 130.109 25.286ZM73.81 27.852C73.6591 28.003 73.6591 28.1539 73.5081 28.3049C73.5081 28.003 73.6591 27.852 73.6591 27.5501V27.3992C73.81 27.5501 73.81 27.7011 73.81 27.852ZM97.0542 29.3615C96.9033 29.5124 96.9033 29.6634 96.7524 29.6634C96.9033 29.3615 97.0542 28.9086 97.2052 28.6067C97.0542 28.9086 97.0542 29.0596 97.0542 29.3615ZM125.279 30.1162C125.128 31.3237 124.525 32.6822 123.77 34.1917C123.166 35.0973 122.713 35.852 122.11 36.3049C122.261 36.003 122.261 35.5501 122.412 35.0973C122.713 34.1917 123.166 33.135 123.619 32.2294C124.072 31.3237 124.676 30.569 125.279 30.1162Z" fill="#57FFFF"/>
<path d="M128.294 24.9842C127.388 23.4748 125.879 22.5691 123.766 22.2672C123.464 22.2672 123.162 22.2672 122.86 22.2672C121.652 22.2672 120.445 22.5691 119.237 23.1729C118.181 23.7766 117.124 24.6823 116.37 25.7389C116.823 24.6823 117.275 23.9276 117.577 23.1729L117.879 22.5691L117.275 21.9653C116.672 21.2106 115.917 20.7578 115.162 20.4559C114.558 20.3049 113.955 20.154 113.653 20.154C113.351 20.154 113.049 20.154 112.747 20.154C112.294 20.154 111.993 20.154 111.54 20.3049C110.03 20.6068 109.427 21.5125 109.125 22.2672C108.974 23.0219 108.672 23.6257 108.37 24.3804C108.068 25.2861 107.314 26.4936 106.408 28.0031C105.502 29.5125 104.597 30.871 103.54 31.9276C103.238 32.3804 102.936 32.6823 102.634 32.8332C102.634 32.6823 102.634 32.6823 102.634 32.5314C102.936 31.4748 103.54 30.2672 104.295 28.7578C105.049 27.2483 105.804 25.8898 106.559 24.6823C107.314 23.4748 108.068 22.5691 108.521 21.9653L109.125 21.2106L108.672 20.6068C108.068 20.0031 107.314 19.5502 106.559 19.2483C105.804 18.9464 105.2 18.7955 104.597 18.6446C104.295 18.6446 103.842 18.6446 103.54 18.6446C103.389 18.6446 103.238 18.6446 103.087 18.6446C101.88 18.6446 100.974 19.2483 100.37 20.154C99.6157 21.5125 98.7101 23.0219 97.9554 24.6823C97.2008 26.3427 96.7479 27.7012 96.4461 28.7578V28.9087C95.5405 29.9653 94.7858 30.72 94.182 31.3238C94.0311 31.4748 93.7292 31.6257 93.5783 31.7766C93.5783 31.4748 93.7292 31.0219 94.0311 30.2672C94.7858 28.6068 95.6914 26.4936 96.8989 24.2295C98.1064 21.9653 99.3139 19.8521 100.37 18.0408C101.729 15.7766 102.333 15.0219 102.634 14.72L103.238 13.9653L102.484 13.3615C101.88 12.7578 101.125 12.3049 100.37 12.0031C99.6157 11.7012 99.012 11.5502 98.4082 11.3993C98.1064 11.3993 97.8045 11.3993 97.5026 11.3993C97.3517 11.3993 97.2008 11.3993 97.0498 11.3993C95.8423 11.3993 94.9367 12.0031 94.333 12.9087C92.9745 15.1729 91.767 17.437 90.7105 20.0031C90.7105 19.5502 90.7105 19.3993 90.7105 19.0974C90.5595 18.1917 90.4086 17.2861 89.9558 16.6823C89.3521 15.7766 88.5974 15.3238 87.5408 15.3238C87.3899 15.3238 87.3899 15.3238 87.2389 15.3238H86.9371H86.7861C85.5786 15.6257 84.5221 16.3804 83.4655 17.437L83.0127 17.2861C82.258 16.8332 81.5034 16.5314 80.5977 16.5314C79.994 16.5314 79.5412 16.3804 79.0884 16.3804C78.9374 16.3804 78.6356 16.3804 78.4846 16.3804C78.0318 16.3804 77.579 16.5314 77.1262 16.6823C76.2206 16.9842 75.4659 17.437 75.0131 18.1917L74.2584 17.7389C74.1075 17.588 73.8056 17.588 73.6547 17.437C73.9565 17.2861 74.2584 17.1351 74.4093 16.9842C75.164 16.5314 76.0696 15.4748 76.0696 13.5125V13.0597C76.0696 12.3049 75.6168 11.7012 75.0131 11.2483C74.4093 10.7955 73.3528 10.6446 71.8434 10.4936H71.5415C70.1831 10.6446 69.1266 11.0974 68.5228 12.0031C67.9191 12.9087 67.6172 13.9653 67.7681 14.871C67.7681 15.4748 68.07 16.2295 68.9756 16.8332C68.8247 16.8332 68.6738 16.8332 68.5228 16.9842C67.6172 17.2861 66.8625 17.8898 66.4097 18.6446C66.4097 18.3427 66.4097 18.1917 66.2588 18.0408C66.1078 17.588 65.9569 17.2861 65.655 16.9842C65.0513 16.3804 64.4475 16.0785 63.6928 16.0785C63.391 16.0785 63.24 16.0785 62.9382 16.0785C62.6363 16.0785 62.1835 16.0785 61.8816 16.2295C60.5232 16.6823 59.4666 18.0408 58.8629 20.4559L57.8063 20.154C56.9007 19.8521 56.146 19.7012 55.3913 19.7012C54.7876 19.7012 54.3348 19.7012 53.882 20.0031C53.4292 20.154 52.9763 20.4559 52.5235 20.7578C51.9198 21.3615 51.316 21.9653 51.0142 22.871L50.2595 22.5691C49.6557 22.4181 49.052 22.2672 48.2973 22.2672C48.1464 22.2672 47.8445 22.2672 47.6936 22.2672C46.9389 22.2672 46.1842 22.4181 45.7314 22.5691C45.2786 22.72 44.9767 22.871 44.5239 23.0219C42.4108 24.2295 42.1089 27.0974 43.7692 31.9276L44.0711 32.9842C44.373 33.8898 44.6748 34.6446 45.1276 35.3993C44.9767 35.2483 44.8258 35.0974 44.8258 35.0974C44.0711 34.3427 43.1655 34.0408 42.1089 33.8898C41.958 33.8898 41.807 33.8898 41.6561 33.8898C39.2411 33.8898 36.3733 35.3993 33.6565 37.0597L33.2037 37.2106L33.0527 37.3615C31.8452 37.9653 30.7887 38.72 29.5812 39.3238C28.9774 39.6257 28.3737 39.9276 27.7699 40.2295C27.619 40.2295 27.4681 40.3804 27.4681 40.3804C27.3171 40.3804 27.3171 40.5314 27.1662 40.5314C27.1662 40.5314 27.1662 40.5314 27.0153 40.5314C26.8643 40.5314 26.8643 40.5314 26.7134 40.6823C26.7134 40.6823 26.7134 40.6823 26.5625 40.6823C26.5625 40.6823 26.4115 40.6823 26.4115 40.8332C26.4115 40.8332 26.4115 40.8332 26.2606 40.8332C26.2606 40.8332 26.1096 40.8332 26.1096 40.9842C26.1096 40.9842 26.1096 40.9842 25.9587 40.9842C25.9587 40.9842 25.8078 40.9842 25.8078 41.1351C25.8078 41.1351 25.8078 41.1351 25.6568 41.1351H25.5059C25.5059 41.1351 25.5059 41.1351 25.355 41.1351H25.204C25.204 41.1351 25.204 41.1351 25.0531 41.1351H24.9022C24.9022 41.1351 24.9022 41.1351 24.7512 41.1351H24.6003C24.6003 41.1351 24.6003 41.1351 24.4493 41.1351H24.2984C24.2984 41.1351 24.2984 41.1351 24.1475 41.1351H23.9965C23.9965 41.1351 23.9965 41.1351 23.8456 41.1351H23.6947C23.6947 41.1351 23.6947 41.1351 23.5437 41.1351H23.3928C23.3928 41.1351 23.3928 41.1351 23.2419 41.1351C25.8078 38.2672 30.1849 33.1351 31.8452 31.3238C31.8452 31.3238 31.8452 31.3238 31.9962 31.1729C37.7318 24.3804 37.8827 14.4181 32.298 7.47475C31.8452 6.87098 31.0906 6.56909 30.3359 6.56909C29.1284 6.56909 28.0718 7.47475 27.9209 8.6823C26.8643 14.5691 23.6947 25.437 14.9403 32.5314C9.35569 37.0597 6.33696 41.588 6.18603 45.8144C6.03509 48.5314 7.09164 50.9465 9.35569 52.9087C10.5632 53.9653 11.9216 54.72 13.7329 54.871C13.8838 54.871 14.0347 54.871 14.1857 54.871C14.4875 54.871 14.6385 54.871 14.9403 54.871C15.846 54.871 16.7516 54.72 17.8081 54.5691C18.4119 54.4181 19.0156 54.2672 19.7703 54.1163C19.9213 54.1163 20.0722 53.9653 20.2231 53.9653H20.3741C20.525 53.9653 20.525 53.9653 20.6759 53.8144H20.8269C20.8269 53.8144 20.9778 53.8144 21.1287 53.8144H21.2797H21.4306H21.5816C21.5816 53.8144 21.7325 53.8144 21.7325 53.6634H21.8834C21.8834 53.6634 22.0344 53.6634 22.0344 53.5125H22.1853C22.1853 53.5125 22.3362 53.5125 22.3362 53.3615H22.4872C22.4872 53.3615 22.6381 53.3615 22.6381 53.2106H22.789C22.789 53.2106 22.94 53.2106 22.94 53.0597H23.0909C23.0909 53.0597 23.2419 53.0597 23.2419 52.9087H23.3928C23.3928 52.9087 23.5437 52.9087 23.5437 52.7578H23.6947C23.8456 52.7578 23.8456 52.6068 23.9965 52.6068C23.9965 52.6068 23.9965 52.6068 24.1475 52.6068C24.2984 52.6068 24.4493 52.4559 24.4493 52.4559C24.6003 52.4559 24.6003 52.3049 24.7512 52.3049C24.7512 52.3049 24.7512 52.3049 24.9022 52.3049C24.9022 52.3049 25.0531 52.3049 25.0531 52.154C23.3928 55.0219 21.8834 59.0974 23.5437 63.0219C26.2606 69.6634 33.8074 72.3804 38.4864 72.9842C39.0902 73.1351 39.543 72.6823 39.8449 72.2295C39.9958 71.7766 39.8449 71.1729 39.3921 70.871C37.279 69.3615 33.6565 66.0408 33.3546 62.871C33.2037 60.3049 33.3546 58.6446 40.5996 50.6446C44.0711 46.72 46.0333 43.3993 46.3351 40.6823C46.4861 39.6257 46.3351 38.5691 46.0333 37.6634C46.637 38.4181 47.2408 39.0219 47.8445 39.6257C48.2973 39.9276 48.7501 40.0785 49.6557 40.2295C49.8067 40.2295 50.1086 40.2295 50.2595 40.2295C50.7123 40.2295 51.0142 40.2295 51.316 40.0785C51.7689 39.9276 52.0707 39.9276 52.2217 39.7766C52.8254 39.6257 53.2782 39.3238 53.5801 39.0219L54.0329 38.5691H54.6367C54.4857 37.8144 54.1838 36.6068 54.0329 34.7955C54.7876 36.0031 55.3913 36.9087 56.146 37.5125C56.5988 37.8144 57.0516 38.1163 57.9573 38.1163C58.1082 38.1163 58.4101 38.1163 58.561 38.1163C59.0138 38.1163 59.3157 38.1163 59.6176 37.9653C60.0704 37.8144 60.3722 37.8144 60.5232 37.6634C61.1269 37.5125 61.5797 37.2106 62.0325 36.9087L62.4854 36.4559L62.3344 35.8521C62.1835 35.0974 62.0325 34.0408 62.0325 32.3804C62.0325 30.72 62.1835 29.0597 62.4854 27.2483C62.7872 25.437 63.24 23.7766 63.6928 22.4181C64.1457 21.2106 64.7494 20.4559 65.5041 20.154C65.2022 21.3615 64.9003 22.5691 64.5985 23.9276C64.1457 25.7389 63.9947 27.2483 63.9947 28.3049C63.9947 29.3615 63.9947 30.1163 63.9947 30.5691C64.1457 31.7766 64.4475 32.8332 64.9003 33.8898C65.3531 34.7955 66.5606 36.0031 68.6737 36.0031H68.8247C70.0322 35.8521 71.2397 35.2483 72.2962 34.0408C72.749 33.437 73.3528 32.9842 73.8056 32.2295C74.1075 32.8332 74.4093 33.437 74.7112 33.8898C75.164 34.3427 75.6168 34.7955 76.3715 34.9465C76.8243 35.0974 77.2771 35.2483 77.7299 35.2483C77.7299 35.2483 77.8809 35.2483 78.0318 35.2483C78.4846 35.2483 79.0884 35.0974 79.5412 34.7955L79.994 34.4936V33.8898C80.1449 31.7766 80.5977 29.9653 81.3524 28.154C81.8052 26.9465 82.258 25.8898 82.7108 25.1351L83.6165 25.8898C84.3712 26.4936 85.2768 26.7955 86.0314 26.7955C86.1824 26.7955 86.1824 26.7955 86.3333 26.7955C86.7861 26.7955 87.088 26.6446 87.3899 26.4936C87.5408 26.3427 87.6918 26.3427 87.8427 26.1917C87.5408 27.3993 87.2389 28.4559 87.088 29.3615C86.9371 30.5691 86.9371 31.6257 87.088 32.6823C87.3899 34.3427 88.4464 35.5502 90.1067 36.0031H90.2577C90.4086 36.0031 90.7105 36.0031 90.8614 36.0031C91.918 36.0031 92.9745 35.7012 94.182 34.9465C94.6348 34.6446 95.2386 34.1917 95.6914 33.8898C95.6914 34.0408 95.6914 34.1917 95.8423 34.3427C96.1442 35.3993 97.0498 36.7578 99.1629 37.2106C99.3139 37.2106 99.4648 37.2106 99.7667 37.2106C100.672 37.2106 101.427 36.9087 102.333 36.4559C101.276 38.2672 100.521 38.871 100.069 39.1729C99.3139 39.6257 98.8611 39.7766 98.7101 39.7766C98.7101 39.7766 98.7101 39.7766 98.5592 39.7766C98.1064 39.7766 97.6536 39.4748 97.2008 39.0219L95.8423 37.5125C95.8423 37.5125 95.6914 37.5125 95.6914 37.6634L95.8423 39.7766C95.8423 41.1351 96.4461 42.0408 97.2008 42.7955C97.9554 43.3993 98.7101 43.8521 99.4648 44.0031C100.069 44.154 100.521 44.3049 100.823 44.3049C100.974 44.3049 101.276 44.3049 101.427 44.3049C103.54 44.3049 105.502 43.2483 107.163 41.2861C108.823 39.4748 110.332 37.2106 111.54 34.6446C111.993 33.7389 112.445 32.8332 112.898 31.9276C112.898 32.0785 112.898 32.2295 112.747 32.3804C112.445 34.7955 112.747 36.9087 113.804 38.4181C114.558 39.6257 115.766 40.2295 117.426 40.5314C117.879 40.5314 118.332 40.6823 118.634 40.6823C120.294 40.6823 121.652 40.2295 123.011 39.3238C124.671 38.2672 125.879 36.9087 126.784 35.2483C127.69 33.588 128.294 31.9276 128.596 30.2672C129.35 28.4559 129.048 26.6446 128.294 24.9842ZM73.6547 23.4748C73.3528 25.1351 73.2018 26.3427 73.3528 27.3993C72.5981 28.9087 71.9944 29.9653 71.3906 30.72C71.2397 30.871 71.0887 31.0219 70.9378 31.1729C70.9378 31.0219 70.9378 30.871 70.9378 30.72C71.0887 29.6634 71.3906 28.3049 71.6925 26.6446C72.1453 24.9842 72.5981 23.4748 73.0509 22.1163C73.5037 20.7578 74.1075 19.7012 74.4093 18.9465C74.2584 20.3049 73.9565 21.8144 73.6547 23.4748ZM83.9183 24.6823L83.0127 25.437C83.3146 24.9842 83.6165 24.5314 83.9183 24.0785C84.3711 23.4748 84.673 23.0219 84.824 22.871C84.824 23.4748 84.5221 24.0785 83.9183 24.6823ZM124.671 29.6634C124.52 30.871 123.917 32.3804 123.011 33.8898C122.407 34.9465 121.803 35.7012 121.049 36.3049C120.596 36.7578 120.143 36.9087 119.841 36.9087C119.841 36.4559 119.841 36.154 119.841 36.0031C119.841 35.3993 120.143 34.7955 120.294 34.1917C120.596 33.1351 121.049 32.2295 121.652 31.1729C122.256 30.2672 122.709 29.3615 123.313 28.7578C123.766 28.3049 124.067 28.0031 124.369 28.0031C124.52 28.0031 124.52 28.0031 124.671 28.154C124.822 28.4559 124.822 28.9087 124.671 29.6634Z" fill="#FFF200"/>
<path d="M39.8359 50.3429C32.44 58.6447 32.1381 60.4561 32.44 63.324C32.8928 68.1542 39.685 72.5315 39.685 72.5315C35.3078 72.0787 27.3082 69.6636 24.5913 63.0221C21.8744 56.3806 28.6666 49.4372 28.6666 49.4372C28.3647 49.5881 23.9876 52.4561 19.3085 53.9655C17.4973 54.5693 15.686 54.8712 13.8748 54.7202C13.7239 54.7202 13.5729 54.7202 13.422 54.7202C11.9126 54.2674 10.5542 53.6636 9.49765 52.758C4.06394 47.6259 6.62986 40.6825 15.0823 33.89C24.2894 26.4938 27.4591 15.0221 28.3647 9.4372C28.6666 8.07871 30.3269 7.77682 31.0816 8.68248C36.3644 15.324 36.2134 24.8334 30.7797 31.173L30.6288 31.324C28.5156 33.89 20.3651 42.9466 20.2141 43.2485C20.2141 43.2485 20.8179 43.8523 27.1572 40.9844C29.1194 40.0787 31.0816 39.0221 32.8928 37.9655C36.0625 36.1542 38.7793 34.6447 41.0434 34.9466C41.7981 34.9466 42.5527 35.2485 43.3074 35.8523C46.0243 38.4183 47.2318 42.041 39.8359 50.3429Z" fill="#EC008C"/>
<path d="M34.2546 40.3806C33.1981 44.758 28.519 49.2863 28.519 49.2863C28.2172 49.4372 23.84 52.3051 19.161 53.8146C17.3497 54.4183 15.5385 54.7202 13.7273 54.5693C13.2744 54.5693 12.8216 54.2674 12.8216 53.6636C12.3688 51.0976 18.2554 45.3617 19.9157 43.7013C20.0666 43.5504 20.2175 43.3995 20.3685 43.2485C20.3685 43.2485 20.9722 43.8523 27.3115 40.9844C29.2737 40.0787 31.2359 39.0221 33.0471 37.9655C33.8018 37.8146 35.0093 37.6636 34.2546 40.3806Z" fill="#9E1F63"/>
<path d="M64.5866 18.4937C64.4357 18.1918 64.4357 18.0409 64.1338 17.8899C63.681 17.4371 63.2282 17.2861 62.7754 17.1352C62.1716 16.9843 61.8697 17.1352 61.4169 17.1352C60.0585 17.588 59.1529 19.3994 58.7001 22.8711C58.2473 25.4371 58.0963 28.1541 58.2473 31.1729V34.0409C57.7945 33.2861 57.4926 32.5314 57.1907 31.6258C56.8888 30.871 56.7379 30.1163 56.587 29.3616C56.2851 27.5503 56.2851 25.8899 56.2851 24.2295C56.2851 22.5692 56.587 21.5126 56.8888 21.0597C55.5304 20.6069 54.3229 20.6069 53.4173 20.9088C53.1154 21.0597 52.6626 21.2107 52.3607 21.5126C50.7004 23.022 49.9458 25.8899 50.0967 30.1163C50.0967 31.7767 50.2476 33.2861 50.3986 34.6446C50.5495 36.0031 50.5495 36.7578 50.5495 36.7578C50.5495 36.7578 50.3986 36.7578 50.3986 36.6069C49.9458 35.8522 49.6439 35.0975 49.342 34.1918C49.0401 33.4371 48.8892 32.6824 48.7383 31.9277C48.4364 30.1163 48.4364 28.456 48.4364 26.7956C48.5873 25.1352 48.7383 24.0786 49.0401 23.6258C48.2855 23.4748 47.6817 23.3239 46.927 23.4748C46.1723 23.6258 45.5686 23.6258 45.1158 23.7767C44.8139 23.9277 44.3611 24.0786 44.0592 24.2295C42.3989 25.1352 42.3989 27.7012 43.7574 31.9277L44.0592 32.8333C44.9649 35.5503 46.4742 37.6635 48.2855 39.4748C48.5873 39.6258 48.8892 39.7767 49.4929 39.7767C50.0967 39.7767 50.5495 39.7767 51.0023 39.7767C51.4551 39.6258 51.6061 39.6258 51.757 39.6258C52.2098 39.4748 52.5117 39.3239 52.8136 39.022C52.5117 38.2673 52.3607 36.9088 52.2098 35.0975C52.0589 33.2861 51.9079 31.4748 52.0589 29.9654L52.3607 31.022C52.6626 32.0786 53.1154 33.1352 53.7192 34.1918C54.4739 35.5503 55.2285 36.456 55.9832 37.2107C56.1342 37.3616 56.587 37.5126 57.1907 37.5126C57.7945 37.5126 58.2473 37.5126 58.7001 37.5126C59.1529 37.5126 59.3038 37.3616 59.4548 37.3616C59.9076 37.2107 60.2094 37.0597 60.5113 36.7578C60.2094 36.0031 60.2094 34.7956 60.2094 33.1352C60.2094 31.4748 60.3604 29.6635 60.6623 27.8522C60.9641 26.0409 61.4169 24.2295 62.0207 22.8711C62.6244 21.3616 63.3791 20.456 64.4357 20.0031C64.7375 19.2484 64.7375 18.7956 64.5866 18.4937Z" fill="#EC008C"/>
<path d="M70.925 16.6824C71.2269 16.6824 71.5287 16.6824 71.8306 16.6824C72.4343 16.6824 72.8872 16.5314 73.34 16.2295C74.0946 15.6258 74.5475 14.871 74.5475 13.5126V13.2107C74.5475 12.7578 74.2456 12.305 73.9437 12.1541C73.4909 11.8522 72.5853 11.7012 71.2269 11.5503H70.925C69.8684 11.7012 69.1137 12.0031 68.6609 12.6069C68.0572 13.6635 67.9062 14.4182 67.9062 15.022C68.0572 16.0786 68.9628 16.6824 70.925 16.6824Z" fill="#EC008C"/>
<path d="M89.043 20.7578C89.043 20.003 89.043 19.5502 89.043 19.2483C89.043 18.4936 88.7411 17.7389 88.4392 17.1351C87.9864 16.5313 87.3827 16.0785 86.628 16.2295H86.3261C85.2696 16.5313 84.213 17.2861 83.3074 18.3427C82.4018 19.3993 81.6471 20.6068 80.8924 21.8144C80.2886 23.0219 79.6849 24.2295 79.2321 25.1351L78.6283 26.4936C79.2321 22.871 80.2886 20.154 81.798 18.1917C81.1943 17.8898 80.4396 17.5879 79.6849 17.437C78.9302 17.437 78.3265 17.437 77.8737 17.437C77.4209 17.437 77.119 17.5879 76.6662 17.5879C75.7606 17.8898 75.3077 18.3427 75.0059 19.0974C74.5531 20.3049 74.2512 21.8144 73.9493 23.6257C73.6474 25.2861 73.4965 26.6445 73.6474 27.5502C72.8928 29.2106 72.1381 30.4181 71.5343 31.3238C70.9306 32.0785 70.3268 32.5313 69.874 32.5313C69.5722 32.5313 69.4212 32.2295 69.4212 31.7766C69.4212 31.4747 69.4212 31.1728 69.4212 30.72C69.5722 29.5125 69.874 28.154 70.3268 26.4936C70.7796 24.8332 71.2325 23.3238 71.8362 21.8144C72.4399 20.3049 72.8928 19.2483 73.3456 18.4936C72.7418 18.1917 71.9871 17.8898 71.2325 17.8898C70.4778 17.7389 69.874 17.7389 69.4212 17.8898C68.9684 17.8898 68.5156 18.0408 68.2137 18.1917C67.3081 18.4936 66.8553 18.9464 66.5534 19.7011C66.1006 21.0596 65.6478 22.72 65.3459 24.5313C65.0441 26.3427 64.7422 27.7011 64.7422 28.7578C64.7422 29.8144 64.7422 30.5691 64.7422 30.871C64.8931 31.9276 65.0441 32.9842 65.4969 33.7389C66.1006 34.7955 67.0062 35.3993 68.5156 35.3993H68.6665C69.5722 35.2483 70.6287 34.7955 71.5343 33.7389C72.44 32.6823 73.3456 31.4747 73.9493 30.1162C74.1003 31.6257 74.5531 32.8332 75.3077 33.7389C75.6096 34.0408 75.9115 34.3427 76.5152 34.4936C76.968 34.6445 77.4209 34.6445 77.7227 34.6445C78.1755 34.6445 78.4774 34.4936 78.9302 34.3427C79.0812 32.2295 79.534 30.1162 80.2886 28.3049C81.0433 26.4936 81.798 24.8332 82.7036 23.6257C83.4583 22.4181 84.213 21.8144 84.5149 21.8144C84.9677 21.8144 85.2696 22.1162 85.2696 22.871C85.4205 23.7766 84.9677 24.6823 84.0621 25.5879C84.8167 26.1917 85.4205 26.3427 86.0242 26.3427C86.3261 26.3427 86.477 26.1917 86.7789 26.0408C87.5336 25.5879 88.1373 24.8332 88.5902 23.7766C88.892 22.4181 89.043 21.5125 89.043 20.7578Z" fill="#EC008C"/>
<path d="M115.898 22.5693C115.446 21.9655 114.842 21.6636 114.238 21.3617C113.634 21.2108 113.181 21.0598 112.88 21.0598C112.276 20.9089 111.672 21.0598 111.068 21.0598C110.163 21.2108 109.559 21.6636 109.257 22.4183C109.106 23.173 108.804 23.7768 108.502 24.5315C108.201 25.5881 107.446 26.7957 106.54 28.3051C105.635 29.8145 104.578 31.173 103.672 32.3806C102.616 33.5881 101.861 34.041 101.257 34.041C100.956 34.041 100.805 33.7391 100.956 33.1353C100.956 32.8334 101.107 32.5315 101.257 32.2296C101.559 31.173 102.163 29.8145 102.918 28.3051C103.672 26.7957 104.427 25.4372 105.333 24.0787C106.087 22.7202 106.842 21.8145 107.446 21.2108C106.842 20.7579 106.238 20.3051 105.635 20.1542C104.88 19.8523 104.427 19.7013 103.974 19.7013C103.522 19.7013 103.069 19.5504 102.767 19.7013C101.861 19.7013 101.257 20.1542 100.654 20.7579C99.8991 21.9655 99.1444 23.4749 98.3897 25.1353C97.635 26.7957 97.1822 28.1542 97.0313 29.0598C97.0313 29.2108 97.0313 29.3617 96.8803 29.5127C95.9747 30.7202 95.0691 31.6259 94.4653 32.2296C93.7107 32.8334 93.1069 33.1353 92.6541 32.9844C92.3522 32.9844 92.2013 32.6825 92.3522 32.0787C92.3522 31.6259 92.6541 30.8711 92.956 29.9655C93.7107 28.1542 94.6163 26.1919 95.8238 23.9278C97.0313 21.6636 98.2388 19.5504 99.2953 17.7391C100.352 15.9278 101.257 14.7202 101.71 14.2674C100.805 13.5127 100.201 13.2108 99.5972 12.9089C98.8425 12.607 98.2388 12.4561 97.786 12.4561C97.3331 12.4561 97.0313 12.4561 96.5785 12.4561C95.6728 12.4561 95.0691 12.9089 94.6163 13.5127C92.956 16.2296 91.4466 19.2485 90.2391 22.2674C89.0316 25.1353 88.126 27.7013 87.8241 29.8145C87.6732 30.8711 87.6732 31.9278 87.8241 32.8334C88.126 34.1919 88.8807 34.9466 90.2391 35.3994H90.3901C91.2957 35.5504 92.5032 35.2485 93.7107 34.4938C94.7672 33.89 95.6728 32.9844 96.5785 32.0787C96.5785 32.9844 96.5785 33.7391 96.8803 34.4938C97.1822 35.7013 98.0878 36.4561 99.4463 36.7579C100.654 36.9089 101.861 36.4561 103.069 35.2485C104.427 34.041 105.484 32.5315 106.54 30.7202C105.635 32.9844 104.578 35.0976 103.522 36.9089C102.465 38.7202 101.408 39.9277 100.503 40.5315C99.5972 41.1353 98.8425 41.2862 98.3897 41.2862C97.7859 41.1353 97.1822 40.8334 96.4275 40.2296C96.4275 41.2862 96.8803 42.041 97.4841 42.4938C98.0878 43.0976 98.8425 43.3994 99.2953 43.5504C99.8991 43.7013 100.352 43.8523 100.654 43.8523C100.805 43.8523 100.956 43.8523 101.107 43.8523C102.918 43.8523 104.578 42.9466 106.238 41.1353C107.748 39.324 109.257 37.2108 110.465 34.6447C111.823 32.0787 112.88 29.6636 113.936 27.3995C114.54 25.2862 115.295 23.7768 115.898 22.5693Z" fill="#EC008C"/>
<path d="M126.614 25.4371C125.86 24.2296 124.652 23.4749 122.69 23.173C121.332 23.022 119.973 23.3239 118.766 23.9277C117.558 24.5315 116.502 25.5881 115.747 26.7956C114.841 28.0032 114.238 29.0598 113.936 30.1164C113.634 31.173 113.332 32.0786 113.332 32.6824C113.03 34.9466 113.332 36.7579 114.238 38.1164C114.841 39.022 115.898 39.6258 117.105 39.7768C118.917 40.0786 120.577 39.6258 122.086 38.7202C123.596 37.8145 124.803 36.456 125.558 34.9466C126.463 33.4371 126.916 31.9277 127.218 30.2673C127.671 28.456 127.369 26.7956 126.614 25.4371ZM124.954 29.8145C124.803 31.173 124.199 32.8334 123.143 34.4937C122.539 35.5503 121.784 36.456 121.03 37.0598C120.275 37.8145 119.52 38.1164 118.917 37.9654C118.464 37.9654 118.162 37.6636 118.162 37.0598C118.162 36.6069 118.162 36.1541 118.162 36.0032C118.313 35.3994 118.464 34.7956 118.615 34.0409C118.917 32.9843 119.369 31.9277 119.973 30.8711C120.577 29.8145 121.181 28.9088 121.784 28.3051C122.539 27.5503 123.143 27.2485 123.596 27.2485C124.803 27.3994 125.105 28.1541 124.954 29.8145Z" fill="#EC008C"/>
</svg>
