<svg width="1440" height="371" viewBox="0 0 1440 371" fill="none" xmlns="http://www.w3.org/2000/svg">
<path d="M1440 7.20223V137.126C1295.09 129.38 1193.92 130.334 1067.73 151.308C970.725 167.515 680.199 224.955 489.533 216.613C457.478 215.183 415.055 213.753 359.762 202.194C259.424 181.1 207.825 143.085 28.8381 121.515C19.0665 120.323 9.53327 119.251 0 118.297V1.78556C72.9167 22.2022 103.75 33.8688 224.167 60.5355C344.583 87.2021 432.5 97.7898 552.5 100.119C672.5 102.448 888.257 80.0066 1071.42 41.3127C1254.58 2.61883 1334.06 -9.24337 1440 7.20223Z" fill="white"/>
<path d="M1440 57.0069V370.903H0.000360624C-0.000430942 310.119 0.00154 35.9521 0.00154 35.9521C0.00154 35.9521 179.662 95.2755 280 116.369C545.417 176.785 864.617 101.808 1099.17 62.6188C1225.48 41.5255 1378.33 35.1188 1440 57.0069Z" fill="#E983CC"/>
</svg>
